<svg width="24" height="24" viewBox="0 0 24 24" fill="none" xmlns="http://www.w3.org/2000/svg">
<path d="M17 5C18.1046 5 19 5.89543 19 7V17C19 18.1046 18.1046 19 17 19H7C5.89543 19 5 18.1046 5 17V7C5 5.89543 5.89543 5 7 5H17ZM21 5C21 3.89543 20.1046 3 19 3H5C3.89543 3 3 3.89543 3 5V19C3 20.1046 3.89543 21 5 21H19C20.1046 21 21 20.1046 21 19V5ZM17 16.5C17 16.7761 16.7761 17 16.5 17H7.5C7.22386 17 7 16.7761 7 16.5V16.5C7 16.2239 7.22386 16 7.5 16H16.5C16.7761 16 17 16.2239 17 16.5V16.5ZM17 14.5C17 14.7761 16.7761 15 16.5 15H7.5C7.22386 15 7 14.7761 7 14.5V14.5C7 14.2239 7.22386 14 7.5 14H16.5C16.7761 14 17 14.2239 17 14.5V14.5ZM17 10C17 11.1046 16.1046 12 15 12H9C7.89543 12 7 11.1046 7 10V9C7 7.89543 7.89543 7 9 7H15C16.1046 7 17 7.89543 17 9V10Z" fill="black"/>
</svg>
