<svg width="24" height="24" viewBox="0 0 24 24" fill="none" xmlns="http://www.w3.org/2000/svg">
<path fill-rule="evenodd" clip-rule="evenodd" d="M8.05919 7.41667L9.35459 8.73606C9.8818 9.27304 9.8818 10.1436 9.35459 10.6806C8.82738 11.2175 7.97262 11.2175 7.44541 10.6806L3.84541 7.01394C3.3182 6.47696 3.3182 5.60637 3.84541 5.0694L7.44541 1.40273C7.97262 0.865757 8.82738 0.865757 9.35459 1.40273C9.8818 1.9397 9.8818 2.8103 9.35459 3.34727L8.05919 4.66667H12C16.9705 4.66667 21 8.77072 21 13.8333C21 18.8959 16.9705 23 12 23C7.02943 23 3 18.8959 3 13.8333C3 13.074 3.60441 12.4583 4.35 12.4583C5.09559 12.4583 5.7 13.074 5.7 13.8333C5.7 17.3772 8.52061 20.25 12 20.25C15.4794 20.25 18.3 17.3772 18.3 13.8333C18.3 10.2895 15.4794 7.41667 12 7.41667H8.05919ZM12.9 10.1667V13.8333H14.7C15.1971 13.8333 15.6 14.2437 15.6 14.75C15.6 15.2563 15.1971 15.6667 14.7 15.6667H12C11.5029 15.6667 11.1 15.2563 11.1 14.75V10.1667C11.1 9.6604 11.5029 9.25 12 9.25C12.4971 9.25 12.9 9.6604 12.9 10.1667Z" fill="black"/>
</svg>
