<svg width="24" height="24" viewBox="0 0 24 24" fill="none" xmlns="http://www.w3.org/2000/svg">
<g clip-path="url(#clip0_2952_4935)">
<path d="M10.5286 13.9383C11.5085 13.9383 14.5692 13.9383 14.5692 13.9383C15.3808 13.9383 16.0383 13.2808 16.0383 12.4692C16.0383 11.6576 15.3808 11 14.5692 11C13.8346 11 12.3654 11 8.6925 11C5.01883 11 3.85615 12.5303 2.57046 13.816L0.237618 15.8537C0.086624 15.9851 -0.000976562 16.1761 -0.000976562 16.3762V23.1483C-0.000976562 23.2389 0.0518834 23.3211 0.134169 23.3589C0.216455 23.3959 0.313091 23.383 0.381799 23.3241L4.8905 19.4587C5.0498 19.3236 5.26119 19.2662 5.46655 19.3032L12.4923 20.5806C12.9823 20.6697 13.4873 20.5572 13.8943 20.2695C13.8943 20.2695 22.8625 14.0342 23.5239 13.4831C24.1551 12.904 24.1475 12.0637 23.5685 11.4325C22.9886 10.7999 21.9075 10.9342 21.1865 11.468C20.5259 12.0191 16.0127 14.9854 16.0127 14.9854H10.5286L10.5113 14.993C10.2222 14.9839 9.99641 14.7416 10.0054 14.4531C10.016 14.164 10.2576 13.9375 10.546 13.9473L10.5286 13.9383Z" fill="black"/>
<path d="M18.345 0.733959C17.0408 0.443221 15.7461 0.886347 14.8842 1.78641C16.7341 2.9746 17.7476 5.22867 17.2422 7.49605C17.2049 7.66333 17.1586 7.82626 17.1066 7.98641C18.9635 8.21003 20.7235 6.99427 21.139 5.12997C21.5816 3.14475 20.331 1.17665 18.345 0.733959Z" fill="black"/>
<path d="M12.3206 5.39195L11.7539 5.26562L11.4995 6.40705L12.0661 6.53337C12.425 6.61336 12.774 6.42196 12.8441 6.10735C12.914 5.79344 12.6794 5.47194 12.3206 5.39195Z" fill="black"/>
<path d="M12.893 2.21377C10.6242 1.70801 8.37402 3.13787 7.86826 5.40671C7.36234 7.67631 8.79236 9.92574 11.0612 10.4315C13.3301 10.9372 15.5801 9.50814 16.086 7.23854C16.5917 4.9697 15.1619 2.71953 12.893 2.21377ZM11.9243 7.16712L11.3576 7.0408L11.1725 7.87125C11.1368 8.03117 10.9784 8.13119 10.8192 8.09571L10.6741 8.06336C10.5141 8.02771 10.4139 7.87003 10.4496 7.71011L11.1073 4.75965C11.1428 4.60048 11.3006 4.49953 11.4605 4.53518L12.4612 4.75825C13.2195 4.92727 13.7151 5.60473 13.5671 6.26866C13.4189 6.93333 12.6825 7.33614 11.9243 7.16712Z" fill="black"/>
</g>
<defs>
<clipPath id="clip0_2952_4935">
<rect width="24" height="24" fill="white"/>
</clipPath>
</defs>
</svg>
