<svg width="18" height="18" viewBox="0 0 18 18" fill="none" xmlns="http://www.w3.org/2000/svg">
<g clip-path="url(#clip0_215_1388)">
<path d="M15.0405 9.85376H13.7258C13.8598 10.2207 13.9331 10.6166 13.9331 11.0293V15.9981C13.9331 16.1702 13.9031 16.3354 13.8486 16.4889H16.0221C16.834 16.4889 17.4946 15.8284 17.4946 15.0165V12.3078C17.4946 10.9546 16.3937 9.85376 15.0405 9.85376Z" fill="#E3B36F"/>
<path d="M4.05617 11.0293C4.05617 10.6166 4.12938 10.2207 4.26339 9.85376H2.94868C1.59551 9.85376 0.494629 10.9546 0.494629 12.3078V15.0166C0.494629 15.8284 1.15514 16.489 1.96706 16.489H4.1406C4.08612 16.3353 4.05617 16.1702 4.05617 15.9981V11.0293Z" fill="#E3B36F"/>
<path d="M10.4975 8.57544H7.49189C6.13873 8.57544 5.03784 9.67632 5.03784 11.0295V15.9983C5.03784 16.2694 5.25758 16.4892 5.52865 16.4892H12.4607C12.7318 16.4892 12.9516 16.2694 12.9516 15.9983V11.0295C12.9516 9.67632 11.8507 8.57544 10.4975 8.57544Z" fill="#E3B36F"/>
<path d="M8.99475 2.06836C7.3674 2.06836 6.04346 3.3923 6.04346 5.01969C6.04346 6.12353 6.6527 7.08759 7.55244 7.59373C7.9792 7.83379 8.47121 7.97099 8.99475 7.97099C9.5183 7.97099 10.0103 7.83379 10.4371 7.59373C11.3368 7.08759 11.946 6.1235 11.946 5.01969C11.946 3.39234 10.6221 2.06836 8.99475 2.06836Z" fill="#E3B36F"/>
<path d="M3.81216 4.81934C2.5951 4.81934 1.60498 5.80946 1.60498 7.02652C1.60498 8.24358 2.5951 9.2337 3.81216 9.2337C4.12089 9.2337 4.41487 9.16975 4.68192 9.0548C5.14364 8.85601 5.52435 8.50413 5.75993 8.06335C5.92528 7.754 6.01935 7.40108 6.01935 7.02652C6.01935 5.80949 5.02923 4.81934 3.81216 4.81934Z" fill="#E3B36F"/>
<path d="M14.1772 4.81934C12.9601 4.81934 11.97 5.80946 11.97 7.02652C11.97 7.40112 12.064 7.75403 12.2294 8.06335C12.465 8.50416 12.8457 8.85605 13.3074 9.0548C13.5744 9.16975 13.8684 9.2337 14.1772 9.2337C15.3942 9.2337 16.3843 8.24358 16.3843 7.02652C16.3843 5.80946 15.3942 4.81934 14.1772 4.81934Z" fill="#E3B36F"/>
</g>
<defs>
<clipPath id="clip0_215_1388">
<rect width="17" height="17" fill="white" transform="translate(0.494629 0.778809)"/>
</clipPath>
</defs>
</svg>
