<svg width="24" height="24" viewBox="0 0 24 24" fill="none" xmlns="http://www.w3.org/2000/svg">
<path d="M5.59998 17.5992V3.19922H20V17.5992C20 19.3664 18.5672 20.7992 16.8 20.7992" stroke="#1A94AE" stroke-width="2" stroke-miterlimit="10" stroke-linecap="round" stroke-linejoin="round"/>
<path d="M13.6 17.5996H3.20001C3.20001 19.3668 4.63281 20.7996 6.40001 20.7996H16.8C15.0328 20.7996 13.6 19.3668 13.6 17.5996Z" stroke="#1A94AE" stroke-width="2" stroke-miterlimit="10" stroke-linecap="round" stroke-linejoin="round"/>
<path d="M12 10.4004H16.8" stroke="#1A94AE" stroke-width="2" stroke-miterlimit="10" stroke-linejoin="round"/>
<path d="M8.79999 10.4004H10.4" stroke="#1A94AE" stroke-width="2" stroke-miterlimit="10" stroke-linejoin="round"/>
<path d="M12 13.5996H16.8" stroke="#1A94AE" stroke-width="2" stroke-miterlimit="10" stroke-linejoin="round"/>
<path d="M8.79999 13.5996H10.4" stroke="#1A94AE" stroke-width="2" stroke-miterlimit="10" stroke-linejoin="round"/>
<path d="M12 7.19922H16.8" stroke="#1A94AE" stroke-width="2" stroke-miterlimit="10" stroke-linejoin="round"/>
<path d="M8.79999 7.19922H10.4" stroke="#1A94AE" stroke-width="2" stroke-miterlimit="10" stroke-linejoin="round"/>
<path d="M13.6 17.5996H3.20001C3.20001 19.3668 4.63281 20.7996 6.40001 20.7996H16.8C15.0328 20.7996 13.6 19.3668 13.6 17.5996Z" fill="#1A94AE"/>
</svg>
