<svg width="24" height="24" viewBox="0 0 24 24" fill="none" xmlns="http://www.w3.org/2000/svg">
<g clip-path="url(#clip0_2952_4978)">
<path d="M4.8002 3.6002H3.6002V4.8002H1.2002V3.0002C1.2002 2.00608 2.00608 1.2002 3.0002 1.2002H4.8002V3.6002Z" fill="black"/>
<path d="M20.0486 7.50601C19.938 7.39139 19.8055 7.29997 19.6591 7.23707C19.5127 7.17418 19.3552 7.14109 19.1959 7.13969C19.0365 7.13831 18.8785 7.16867 18.731 7.22901C18.5835 7.28935 18.4496 7.37846 18.3369 7.49113C18.2242 7.60379 18.1352 7.73777 18.0748 7.88525C18.0145 8.03273 17.9841 8.19075 17.9854 8.35009C17.9869 8.50942 18.02 8.66689 18.0829 8.81329C18.1458 8.95969 18.2372 9.09211 18.3518 9.20281L19.9034 10.7532H14.4002C14.082 10.7532 13.7767 10.8796 13.5517 11.1047C13.3267 11.3297 13.2002 11.6349 13.2002 11.9532C13.2002 12.2714 13.3267 12.5767 13.5517 12.8017C13.7767 13.0267 14.082 13.1532 14.4002 13.1532H19.9034L18.3518 14.7048C18.2372 14.8154 18.1458 14.9479 18.0829 15.0943C18.02 15.2407 17.9869 15.3982 17.9854 15.5575C17.9841 15.7169 18.0145 15.8749 18.0748 16.0223C18.1352 16.1698 18.2242 16.3038 18.3369 16.4165C18.4496 16.5292 18.5835 16.6182 18.731 16.6786C18.8785 16.7389 19.0365 16.7693 19.1959 16.7678C19.3552 16.7665 19.5127 16.7334 19.6591 16.6705C19.8055 16.6076 19.938 16.5162 20.0486 16.4016L23.6486 12.8016C23.7602 12.6901 23.8486 12.5578 23.9091 12.4121C23.9695 12.2664 24.0006 12.1103 24.0006 11.9526C24.0006 11.7949 23.9695 11.6387 23.9091 11.4931C23.8486 11.3474 23.7602 11.215 23.6486 11.1036L20.0486 7.50361V7.50601Z" fill="black"/>
<path d="M8.40039 7.2002H9.59668H9.60039H9.6041H10.8004V16.8002H8.40039V7.2002Z" fill="black"/>
<path d="M22.8002 21.6002C22.8002 22.263 22.263 22.8002 21.6002 22.8002H19.2002V20.4002H20.4002V19.2002H22.8002V21.6002Z" fill="black"/>
<path d="M2.4002 22.8002C1.73746 22.8002 1.2002 22.263 1.2002 21.6002V19.2002H3.6002V20.4002H4.8002V22.8002H2.4002Z" fill="black"/>
<path d="M20.4002 3.6002V4.8002H22.8002V3.0002C22.8002 2.00608 21.9943 1.2002 21.0002 1.2002H19.2002V3.6002H20.4002Z" fill="black"/>
<path d="M6.0002 7.2002H1.2002V16.8002H6.0002V7.2002Z" fill="black"/>
</g>
<defs>
<clipPath id="clip0_2952_4978">
<rect width="24" height="24" fill="white"/>
</clipPath>
</defs>
</svg>
