<svg width="24" height="24" viewBox="0 0 24 24" fill="none" xmlns="http://www.w3.org/2000/svg">
<path d="M22.2 14.4L21 13.7C19.7 12.9 19.7 11 21 10.2L22.2 9.5C23.2 8.9 23.5 7.7 22.9 6.8L21.9 5.1C21.3 4.1 20.1 3.8 19.2 4.4L18 5.1C16.7 5.9 15 4.9 15 3.4V2C15 0.9 14.1 0 13 0H11C9.90003 0 9.00003 0.9 9.00003 2V3.3C9.00003 4.8 7.30003 5.8 6.00003 5L4.80003 4.4C3.80003 3.8 2.60003 4.2 2.10003 5.1L1.10003 6.8C0.600028 7.8 0.900028 9 1.80003 9.6L3.00003 10.3C4.30003 11 4.30003 13 3.00003 13.7L1.80003 14.4C0.800028 15 0.500028 16.2 1.10003 17.1L2.10003 18.8C2.70003 19.8 3.90003 20.1 4.80003 19.5L6.00003 18.9C7.30003 18.1 9.00003 19.1 9.00003 20.6V22C9.00003 23.1 9.90003 24 11 24H13C14.1 24 15 23.1 15 22V20.7C15 19.2 16.7 18.2 18 19L19.2 19.7C20.2 20.3 21.4 19.9 21.9 19L22.9 17.3C23.4 16.2 23.1 15 22.2 14.4ZM12 16C9.80003 16 8.00003 14.2 8.00003 12C8.00003 9.8 9.80003 8 12 8C14.2 8 16 9.8 16 12C16 14.2 14.2 16 12 16Z" fill="#1A94AE"/>
</svg>
