<svg width="18" height="18" viewBox="0 0 18 18" fill="none" xmlns="http://www.w3.org/2000/svg">
<g clip-path="url(#clip0_624_1724)">
<path d="M8.99454 0.575684C4.30785 0.575684 0.494537 4.389 0.494537 9.07568C0.494537 13.7624 4.30785 17.5757 8.99454 17.5757C13.6812 17.5757 17.4945 13.7624 17.4945 9.07568C17.4945 4.389 13.6812 0.575684 8.99454 0.575684ZM8.99454 16.5132C4.89329 16.5132 1.55704 13.1769 1.55704 9.07568C1.55704 4.97443 4.89329 1.63818 8.99454 1.63818C13.0958 1.63818 16.432 4.97443 16.432 9.07568C16.432 13.1769 13.0958 16.5132 8.99454 16.5132Z" fill="#E3B36F"/>
<path d="M8.99454 8.54443C8.13072 8.54443 7.40079 8.05781 7.40079 7.48193C7.40079 6.90606 8.13072 6.41943 8.99454 6.41943C9.48329 6.41943 9.93591 6.57243 10.2355 6.83806C10.4544 7.0325 10.7891 7.01443 10.9857 6.79343C11.1812 6.57456 11.161 6.23881 10.941 6.04331C10.5692 5.71287 10.0698 5.48975 9.52579 5.40156V4.82568C9.52579 4.53243 9.28779 4.29443 8.99454 4.29443C8.70129 4.29443 8.46329 4.53243 8.46329 4.82568V5.39943C7.25204 5.59706 6.33829 6.45556 6.33829 7.48193C6.33829 8.65387 7.53041 9.60693 8.99454 9.60693C9.85835 9.60693 10.5883 10.0936 10.5883 10.6694C10.5883 11.2453 9.85835 11.7319 8.99454 11.7319C8.50579 11.7319 8.05316 11.5789 7.75354 11.3133C7.53466 11.1178 7.19891 11.1369 7.00341 11.3579C6.80791 11.5768 6.8281 11.9126 7.04804 12.1081C7.41991 12.4396 7.91929 12.6616 8.46329 12.7509V13.3257C8.46329 13.6189 8.70129 13.8569 8.99454 13.8569C9.28779 13.8569 9.52579 13.6189 9.52579 13.3257V12.7519C10.737 12.5543 11.6508 11.6958 11.6508 10.6694C11.6508 9.4975 10.4587 8.54443 8.99454 8.54443Z" fill="#E3B36F"/>
</g>
<defs>
<clipPath id="clip0_624_1724">
<rect width="17" height="17" fill="white" transform="translate(0.494537 0.575684)"/>
</clipPath>
</defs>
</svg>
