<svg width="24" height="24" viewBox="0 0 24 24" fill="none" xmlns="http://www.w3.org/2000/svg">
<path d="M15.3943 15.8416L6.16217 14.9891L5.97852 16.9564L15.2238 17.8087L15.3943 15.8416Z" fill="black"/>
<path d="M15.17 18.3727L5.89844 18.3859V20.3657L15.17 20.353V18.3727Z" fill="black"/>
<path d="M17.1757 10.9894L9.18938 6.26831L8.17969 7.97303L16.1658 12.6941L17.1757 10.9894Z" fill="black"/>
<path d="M16.0093 13.2451L7.05254 10.8452L6.54102 12.7598L15.4979 15.1599L16.0093 13.2451Z" fill="black"/>
<path d="M16.7562 21.9395H4.58673V13.8352H3V23.4868H3.0132L3.47225 23.5H18.317V23.4868L18.3302 23.0277V13.8352H16.7562V21.9395Z" fill="black"/>
<path d="M19.8526 0L17.8984 0.340911L19.4855 9.48129L21.4392 9.14038L19.8526 0Z" fill="black"/>
<path d="M12.2715 3.05553L17.5039 10.7141L19.1303 9.59948L13.9107 1.92786L12.2715 3.05553Z" fill="black"/>
</svg>
