<svg width="24" height="24" viewBox="0 0 24 24" fill="none" xmlns="http://www.w3.org/2000/svg">
<path fill-rule="evenodd" clip-rule="evenodd" d="M1.88876 15.2694L2.51422 14.9436L8.57637 17.9225C9.53861 18.3879 10.6933 18.6672 11.7999 18.7137C12.9546 18.8068 14.0612 18.6206 14.831 18.2483L21.4705 14.9436L21.5186 14.9902C23.2506 15.828 23.4912 17.0847 22.0959 17.7828L14.5423 21.553C13.147 22.2511 10.5971 22.1115 8.91315 21.2737L2.4661 18.0621C0.782174 17.2243 0.4935 15.9676 1.88876 15.2694ZM1.88876 11.3131L2.70667 10.8942L8.57637 13.8265C9.53861 14.292 10.6933 14.5712 11.7999 14.6178C12.9546 14.6643 14.0612 14.5247 14.831 14.1058L21.278 10.8942L21.5186 11.0338C23.2506 11.8716 23.4912 13.1284 22.0959 13.8265L14.5423 17.5967C13.147 18.2948 10.5971 18.1552 8.91315 17.3174L2.4661 14.1058C0.782174 13.268 0.4935 12.0113 1.88876 11.3131ZM1.88876 7.21716L9.4905 3.44703C10.8858 2.74885 13.3876 2.88849 15.1196 3.72629L21.5186 6.93789C23.2506 7.7757 23.4912 9.03241 22.0959 9.73058L14.5423 13.5007C13.147 14.1989 10.5971 14.0593 8.91315 13.2214L2.4661 10.0098C0.782174 9.17204 0.4935 7.91533 1.88876 7.21716Z" fill="black"/>
</svg>
