<svg width="24" height="24" viewBox="0 0 24 24" fill="none" xmlns="http://www.w3.org/2000/svg">
<g clip-path="url(#clip0_1_4162)">
<path d="M5.25 18.75H4.5C2.42925 18.75 0.75 17.0707 0.75 15C0.75 12.9293 2.42925 11.25 4.5 11.25H5.25V18.75Z" stroke="#1A94AE" stroke-width="2" stroke-miterlimit="10" stroke-linejoin="round"/>
<path d="M19.5 18.75H18.75V11.25H19.5C21.5707 11.25 23.25 12.9293 23.25 15C23.25 17.0707 21.5707 18.75 19.5 18.75Z" stroke="#1A94AE" stroke-width="2" stroke-miterlimit="10" stroke-linejoin="round"/>
<path d="M3.75 11.25V9C3.75 4.44375 7.44375 0.75 12 0.75C16.5562 0.75 20.25 4.44375 20.25 9V11.25" stroke="#1A94AE" stroke-width="2" stroke-miterlimit="10" stroke-linejoin="round"/>
<path d="M20.25 18.75V21.75C20.25 22.5788 19.5788 23.25 18.75 23.25H16.5" stroke="#1A94AE" stroke-width="2" stroke-miterlimit="10" stroke-linejoin="round"/>
<path d="M13.5 23.25H15" stroke="#1A94AE" stroke-width="2" stroke-miterlimit="10" stroke-linejoin="round"/>
</g>
<defs>
<clipPath id="clip0_1_4162">
<rect width="24" height="24" fill="white"/>
</clipPath>
</defs>
</svg>
