<svg width="512" height="512" viewBox="0 0 512 512" fill="none" xmlns="http://www.w3.org/2000/svg">
<g filter="url(#filter0_d_954_399)">
<path d="M28.0425 471.729C28.0425 432.927 27.8205 394.825 28.3913 356.722C28.8137 354.417 29.7081 352.225 31.018 350.283C32.3279 348.341 34.0248 346.693 36.0021 345.441C80.3989 317.158 125.028 289.172 169.89 261.482C174.619 258.819 179.942 257.398 185.366 257.351C204.393 256.874 223.42 257.541 242.447 257.033C251.961 256.779 255.132 259.543 256.21 269.49C258.938 293.324 252.817 309.754 229.636 321.448C203.886 334.445 180.387 351.924 156.698 370.895C161.772 371.181 166.878 371.658 171.952 371.658C269.308 371.658 366.695 372.135 464.051 371.658C478.195 371.658 482.127 375.853 481.556 389.454C480.605 413.034 481.112 436.677 481.556 460.289C481.556 468.837 479.558 473 469.886 473C324.835 472.873 179.784 472.873 34.7337 473C32.4743 472.747 30.2375 472.322 28.0425 471.729Z" fill="url(#paint0_linear_954_399)"/>
<path d="M354.962 140.406H337.996C241.243 140.406 144.552 140.247 47.704 140.914C33.1164 140.914 28.3279 136.783 29.0573 122.26C30.1672 99.6972 29.7551 77.0708 29.4063 54.4763C29.216 44.0847 32.0699 38.9684 43.74 39.0001C186.148 39.551 328.546 39.8369 470.933 39.8581C480.763 39.8581 484.093 43.6081 483.998 53.237C483.681 84.8566 484.41 116.508 483.586 148.128C483.307 151.399 482.358 154.578 480.797 157.465C479.237 160.352 477.098 162.886 474.516 164.907C431.324 193.19 387.625 220.71 343.894 248.167C339.291 251.055 334.032 252.728 328.609 253.029C309.582 253.633 290.555 253.029 271.527 253.442C263.473 253.442 259.033 250.868 260.016 242.129C260.159 241.138 260.159 240.132 260.016 239.142C255.005 214.068 264.9 198.497 287.827 186.961C311.643 174.949 333.398 158.869 356.072 144.537L354.962 140.406Z" fill="url(#paint1_linear_954_399)"/>
</g>
<defs>
<filter id="filter0_d_954_399" x="-4" y="0" width="520" height="520" filterUnits="userSpaceOnUse" color-interpolation-filters="sRGB">
<feFlood flood-opacity="0" result="BackgroundImageFix"/>
<feColorMatrix in="SourceAlpha" type="matrix" values="0 0 0 0 0 0 0 0 0 0 0 0 0 0 0 0 0 0 127 0" result="hardAlpha"/>
<feOffset dy="4"/>
<feGaussianBlur stdDeviation="2"/>
<feComposite in2="hardAlpha" operator="out"/>
<feColorMatrix type="matrix" values="0 0 0 0 0 0 0 0 0 0 0 0 0 0 0 0 0 0 0.25 0"/>
<feBlend mode="normal" in2="BackgroundImageFix" result="effect1_dropShadow_954_399"/>
<feBlend mode="normal" in="SourceGraphic" in2="effect1_dropShadow_954_399" result="shape"/>
</filter>
<linearGradient id="paint0_linear_954_399" x1="27.5788" y1="439.124" x2="502.432" y2="66.6934" gradientUnits="userSpaceOnUse">
<stop stop-color="#5C3E8F"/>
<stop offset="1" stop-color="#5A64AE"/>
</linearGradient>
<linearGradient id="paint1_linear_954_399" x1="27.5788" y1="439.124" x2="502.432" y2="66.6934" gradientUnits="userSpaceOnUse">
<stop stop-color="#5C3E8F"/>
<stop offset="1" stop-color="#5A64AE"/>
</linearGradient>
</defs>
</svg>
