<svg width="1327" height="386" viewBox="0 0 1327 386" fill="none" xmlns="http://www.w3.org/2000/svg">
<g filter="url(#filter0_d_954_475)">
<path d="M1018.63 170.469C1039.57 147.269 1065.43 139.701 1094.98 144.755C1125.51 149.992 1145.01 170.796 1148.83 201.538C1149.86 210.994 1150.33 220.502 1150.25 230.014C1150.42 260.206 1150.25 290.41 1150.25 321.047H1088.93V314.658C1088.93 287.739 1089.04 260.834 1088.84 233.916C1088.79 227.721 1088.15 221.545 1086.94 215.468C1084.9 205.308 1078.97 198.016 1068.44 196.091C1056.91 193.97 1045.77 196.091 1039.31 206.565C1035.08 213.357 1032.62 221.106 1032.16 229.098C1031.27 257.221 1031.69 285.396 1031.63 313.545C1031.63 315.98 1031.63 318.415 1031.63 321.165H970.039V314.619C970.039 287.491 970.039 260.376 970.039 233.261C970.069 228.096 969.67 222.937 968.847 217.838C966.687 205.335 959.944 197.846 949.837 196C936.482 193.551 923.927 198.251 918.493 209.485C915.152 216.323 913.274 223.784 912.981 231.389C912.327 258.883 912.68 286.456 912.654 313.99V321.112H851.328V146.706H909.42V164.211C926.179 148.748 944.77 142.438 965.849 143.459C987.216 144.493 1005.17 152.283 1018.63 170.469Z" fill="black"/>
<path d="M317.721 146.522H378.955V153.147C378.955 179.227 378.864 205.321 378.955 231.401C379.001 237.393 379.509 243.372 380.474 249.286C382.32 260.768 388.644 268.82 400.414 271.111C412.485 273.468 424.229 271.7 431.705 261.148C436.052 255.02 439.666 247.034 440.032 239.702C441.276 215.324 440.909 190.88 441.132 166.462C441.132 160.047 441.132 153.644 441.132 146.718H502.183V320.968H444.156V303.515C441.446 305.78 439.797 307.181 438.134 308.543C406.41 334.728 351.16 327.619 329.871 294.652C321.178 281.166 317.747 266.031 317.538 250.373C317.08 216.633 317.341 182.88 317.328 149.14C317.396 148.259 317.527 147.384 317.721 146.522Z" fill="black"/>
<path d="M830.633 146.614V321.06H772.567V304.131C771.507 304.679 770.492 305.309 769.53 306.017C743.79 330.251 700.637 328.484 676.298 312.668C656.868 300.033 647.887 280.774 646.905 258.595C645.517 227.173 646.041 195.751 645.766 164.263C645.766 158.502 645.766 152.755 645.766 146.601H707.445V153.527C707.445 179.804 707.379 206.094 707.445 232.371C707.464 237.744 707.871 243.108 708.662 248.422C710.456 260.376 716.78 268.925 729.1 271.19C741.931 273.534 753.479 270.798 761.674 259.616C768.404 250.452 769.53 239.742 769.53 228.888C769.622 203.855 769.53 178.809 769.53 153.763V146.614H830.633Z" fill="black"/>
<path d="M581.122 146.731V166.894C594.214 152.387 609.585 145.945 627.574 143.995V197.124L618.724 198.211C597.344 200.83 584.971 213.673 584.474 235.263C583.871 261.304 584.199 287.385 584.133 313.452C584.133 315.887 584.133 318.323 584.133 321.151H522.781V146.731H581.122Z" fill="black"/>
<path d="M1170.36 146.404H1230.74V321.06H1170.36V146.404Z" fill="black"/>
<path d="M90.0175 324.463C90.0175 308.477 89.9259 292.779 90.1615 277.081C90.336 276.131 90.7052 275.228 91.246 274.428C91.7868 273.628 92.4874 272.949 93.3037 272.433C111.633 260.781 130.059 249.251 148.581 237.843C150.533 236.745 152.731 236.16 154.97 236.141C162.826 235.944 170.681 236.219 178.537 236.01C182.464 235.905 183.774 237.044 184.219 241.142C185.345 250.961 182.818 257.73 173.247 262.548C162.616 267.903 152.914 275.104 143.134 282.92C145.229 283.038 147.337 283.235 149.432 283.235C189.626 283.235 229.833 283.431 270.028 283.235C275.867 283.235 277.49 284.963 277.255 290.566C276.862 300.281 277.072 310.022 277.255 319.75C277.255 323.272 276.43 324.987 272.437 324.987C212.551 324.935 152.666 324.935 92.7801 324.987C91.8473 324.883 90.9238 324.708 90.0175 324.463Z" fill="url(#paint0_linear_954_475)"/>
<path d="M224.989 187.96H217.985C178.039 187.96 138.12 187.894 98.135 188.169C92.1124 188.169 90.1354 186.467 90.4365 180.484C90.8947 171.188 90.7246 161.866 90.5806 152.557C90.502 148.276 91.6803 146.168 96.4984 146.181C155.293 146.408 214.083 146.526 272.869 146.535C276.928 146.535 278.302 148.08 278.263 152.047C278.132 165.074 278.433 178.114 278.093 191.141C277.978 192.489 277.586 193.799 276.942 194.988C276.297 196.178 275.414 197.221 274.348 198.054C256.516 209.707 238.475 221.045 220.42 232.357C218.519 233.547 216.348 234.236 214.109 234.36C206.254 234.609 198.398 234.36 190.543 234.53C187.217 234.53 185.384 233.47 185.79 229.869C185.849 229.461 185.849 229.047 185.79 228.638C183.721 218.308 187.806 211.893 197.272 207.14C207.105 202.191 216.086 195.567 225.448 189.662L224.989 187.96Z" fill="url(#paint1_linear_954_475)"/>
<path d="M1198.89 126.713C1194.27 125.535 1187.99 124.828 1182.46 122.38C1170.27 116.986 1163.63 107.441 1163.82 93.6676C1164.01 80.1298 1170.91 71.0697 1182.79 65.7149C1193.17 61.0277 1204.02 60.9884 1214.82 64.4056C1230 69.1582 1237.42 79.8942 1236.91 96.0766C1236.49 109.444 1226.54 121.332 1212.7 124.645C1208.72 125.574 1204.59 125.875 1198.89 126.713Z" fill="url(#paint2_linear_954_475)"/>
</g>
<defs>
<filter id="filter0_d_954_475" x="-4" y="0" width="1335" height="394" filterUnits="userSpaceOnUse" color-interpolation-filters="sRGB">
<feFlood flood-opacity="0" result="BackgroundImageFix"/>
<feColorMatrix in="SourceAlpha" type="matrix" values="0 0 0 0 0 0 0 0 0 0 0 0 0 0 0 0 0 0 127 0" result="hardAlpha"/>
<feOffset dy="4"/>
<feGaussianBlur stdDeviation="2"/>
<feComposite in2="hardAlpha" operator="out"/>
<feColorMatrix type="matrix" values="0 0 0 0 0 0 0 0 0 0 0 0 0 0 0 0 0 0 0.25 0"/>
<feBlend mode="normal" in2="BackgroundImageFix" result="effect1_dropShadow_954_475"/>
<feBlend mode="normal" in="SourceGraphic" in2="effect1_dropShadow_954_475" result="shape"/>
</filter>
<linearGradient id="paint0_linear_954_475" x1="89.8261" y1="311.03" x2="285.561" y2="157.192" gradientUnits="userSpaceOnUse">
<stop stop-color="#5C3E8F"/>
<stop offset="1" stop-color="#5A64AE"/>
</linearGradient>
<linearGradient id="paint1_linear_954_475" x1="89.8261" y1="311.03" x2="285.561" y2="157.192" gradientUnits="userSpaceOnUse">
<stop stop-color="#5C3E8F"/>
<stop offset="1" stop-color="#5A64AE"/>
</linearGradient>
<linearGradient id="paint2_linear_954_475" x1="1163.74" y1="121.662" x2="1235.61" y2="61.0478" gradientUnits="userSpaceOnUse">
<stop stop-color="#5C3E8F"/>
<stop offset="1" stop-color="#5A64AE"/>
</linearGradient>
</defs>
</svg>
