<svg width="24" height="23" viewBox="0 0 24 23" fill="none" xmlns="http://www.w3.org/2000/svg">
<path d="M14.85 3.97461V7.47461H13.35V3.97461C13.35 3.72593 13.11 3.60619 12.95 3.60619C12.9 3.60619 12.85 3.6154 12.8 3.63382L4.87 6.38777C4.34 6.57198 4 7.03251 4 7.55751V8.17461C3.09 8.80093 2.5 9.80487 2.5 10.9378V7.55751C2.5 6.46145 3.23 5.48514 4.34 5.09829L12.28 2.33514C12.5 2.26145 12.73 2.22461 12.95 2.22461C13.95 2.22461 14.85 2.97066 14.85 3.97461Z" fill="url(#paint0_linear_70_8079)"/>
<path d="M21.5 13.6917V14.6128C21.5 14.8615 21.29 15.0641 21.01 15.0733H19.55C19.02 15.0733 18.54 14.7141 18.5 14.2351C18.47 13.9496 18.59 13.6825 18.79 13.4983C18.97 13.3233 19.22 13.2312 19.49 13.2312H21C21.29 13.2404 21.5 13.443 21.5 13.6917Z" fill="url(#paint1_linear_70_8079)"/>
<path d="M19.48 12.2641H20.5C21.05 12.2641 21.5 11.8496 21.5 11.343V10.9378C21.5 9.03119 19.81 7.47461 17.74 7.47461H6.26C5.41 7.47461 4.63 7.7325 4 8.17461C3.09 8.80093 2.5 9.80487 2.5 10.9378V17.1365C2.5 19.043 4.19 20.5996 6.26 20.5996H17.74C19.81 20.5996 21.5 19.043 21.5 17.1365V16.9615C21.5 16.4549 21.05 16.0404 20.5 16.0404H19.63C18.67 16.0404 17.75 15.497 17.5 14.6404C17.29 13.9404 17.54 13.268 18.04 12.8167C18.41 12.4667 18.92 12.2641 19.48 12.2641ZM14 12.0799H7C6.59 12.0799 6.25 11.7667 6.25 11.3891C6.25 11.0115 6.59 10.6983 7 10.6983H14C14.41 10.6983 14.75 11.0115 14.75 11.3891C14.75 11.7667 14.41 12.0799 14 12.0799Z" fill="url(#paint2_linear_70_8079)"/>
<defs>
<linearGradient id="paint0_linear_70_8079" x1="15.9165" y1="11.5776" x2="1.19196" y2="9.32598" gradientUnits="userSpaceOnUse">
<stop stop-color="#5D3889"/>
<stop offset="1" stop-color="#596CB5"/>
</linearGradient>
<linearGradient id="paint1_linear_70_8079" x1="21.7595" y1="15.2086" x2="18.2035" y2="14.5829" gradientUnits="userSpaceOnUse">
<stop stop-color="#5D3889"/>
<stop offset="1" stop-color="#596CB5"/>
</linearGradient>
<linearGradient id="paint2_linear_70_8079" x1="23.1408" y1="21.5635" x2="0.509911" y2="18.029" gradientUnits="userSpaceOnUse">
<stop stop-color="#5D3889"/>
<stop offset="1" stop-color="#596CB5"/>
</linearGradient>
</defs>
</svg>
