<svg width="18" height="18" viewBox="0 0 18 18" fill="none" xmlns="http://www.w3.org/2000/svg">
<rect x="0.5" y="0.5" width="17" height="16.5862" rx="8.2931" fill="#171717"/>
<path fill-rule="evenodd" clip-rule="evenodd" d="M14.8658 7.27289C15.1112 5.64239 13.8623 4.7659 12.1546 4.18116L12.7086 1.97245L11.3561 1.63739L10.8168 3.78788C10.4612 3.69982 10.096 3.61673 9.73312 3.5344L10.2763 1.36973L8.92455 1.03467L8.37024 3.2426C8.07591 3.17598 7.78702 3.11012 7.50658 3.04081L7.5081 3.03392L5.64288 2.57096L5.28309 4.00693C5.28309 4.00693 6.28659 4.23552 6.2654 4.2497C6.81319 4.38563 6.91218 4.74597 6.8956 5.03163L6.26463 7.54784C6.30237 7.55741 6.3513 7.57118 6.40524 7.59262L6.35776 7.58084C6.3269 7.57315 6.29493 7.56518 6.26232 7.55741L5.37785 11.0822C5.31082 11.2476 5.14094 11.4958 4.75804 11.4016C4.77152 11.4211 3.77496 11.1577 3.77496 11.1577L3.10352 12.6966L4.86358 13.1328C5.06022 13.1817 5.2545 13.2321 5.44675 13.2819C5.57463 13.3151 5.7016 13.348 5.82778 13.3801L5.26807 15.6141L6.61903 15.9492L7.17337 13.7389C7.54238 13.8385 7.90065 13.9304 8.2512 14.0169L7.6988 16.2169L9.0513 16.5519L9.61104 14.3221C11.9173 14.756 13.6516 14.581 14.3816 12.5075C14.9698 10.8379 14.3523 9.87487 13.1389 9.24687C14.0225 9.0443 14.6882 8.46646 14.8658 7.27289ZM11.7755 11.5805C11.392 13.1122 8.98002 12.4789 7.87643 12.1892L7.87631 12.1892C7.77707 12.1631 7.68841 12.1398 7.61277 12.1212L8.35549 9.16154C8.44763 9.1844 8.56021 9.20951 8.68775 9.23796C9.82917 9.49255 12.1684 10.0143 11.7755 11.5805ZM8.91886 7.86429C9.83894 8.10838 11.846 8.64083 12.1956 7.24864C12.5526 5.82468 10.6021 5.39544 9.64938 5.1858C9.5422 5.16221 9.44765 5.14141 9.37043 5.12228L8.69706 7.80656C8.76065 7.82232 8.83527 7.84212 8.91886 7.86429Z" fill="#F7931A"/>
<rect x="0.5" y="0.5" width="17" height="16.5862" rx="8.2931" stroke="black"/>
</svg>
