<svg width="29" height="29" viewBox="0 0 29 29" fill="none" xmlns="http://www.w3.org/2000/svg">
<path d="M20.1875 18.4375H11.9375C11.4989 18.4375 11.0025 18.0504 10.8959 17.6242L8.12531 6.54237C7.86544 5.50287 6.8225 4.6875 5.75 4.6875H4.375C3.9955 4.6875 3.6875 4.99481 3.6875 5.375C3.6875 5.75519 3.9955 6.0625 4.375 6.0625H5.75C6.18863 6.0625 6.685 6.44956 6.79156 6.87581L9.56219 17.9576C9.82206 18.9971 10.865 19.8125 11.9375 19.8125H20.1875C20.567 19.8125 20.875 19.5052 20.875 19.125C20.875 18.7448 20.567 18.4375 20.1875 18.4375ZM11.9375 21.1875C10.8004 21.1875 9.875 22.1129 9.875 23.25C9.875 24.3871 10.8004 25.3125 11.9375 25.3125C13.0746 25.3125 14 24.3871 14 23.25C14 22.1129 13.0746 21.1875 11.9375 21.1875ZM11.9375 23.9375C11.5587 23.9375 11.25 23.6295 11.25 23.25C11.25 22.8705 11.5587 22.5625 11.9375 22.5625C12.3163 22.5625 12.625 22.8705 12.625 23.25C12.625 23.6295 12.3163 23.9375 11.9375 23.9375ZM18.8125 21.1875C17.6754 21.1875 16.75 22.1129 16.75 23.25C16.75 24.3871 17.6754 25.3125 18.8125 25.3125C19.9496 25.3125 20.875 24.3871 20.875 23.25C20.875 22.1129 19.9496 21.1875 18.8125 21.1875ZM18.8125 23.9375C18.4337 23.9375 18.125 23.6295 18.125 23.25C18.125 22.8705 18.4337 22.5625 18.8125 22.5625C19.1913 22.5625 19.5 22.8705 19.5 23.25C19.5 23.6295 19.1913 23.9375 18.8125 23.9375Z" fill="black"/>
<path d="M23.6511 8.10644C23.3445 7.68088 22.8344 7.4375 22.25 7.4375H18.125C17.7455 7.4375 17.4375 7.74481 17.4375 8.125C17.4375 8.50519 17.7455 8.8125 18.125 8.8125H22.25C22.3847 8.8125 22.492 8.84894 22.536 8.91013C22.58 8.97131 22.5807 9.08475 22.5381 9.21194L20.6578 14.8529C20.512 15.2901 19.9599 15.6875 19.5 15.6875H12.625C12.2455 15.6875 11.9375 15.9948 11.9375 16.375C11.9375 16.7552 12.2455 17.0625 12.625 17.0625H19.5C20.5491 17.0625 21.6306 16.2829 21.9619 15.2881L23.8422 9.64712C24.0272 9.09231 23.9571 8.53063 23.6511 8.10644Z" fill="black"/>
<path d="M13.5139 10.3889C13.2451 10.6578 13.2451 11.0922 13.5139 11.3611L15.5764 13.4236C15.7105 13.5576 15.8865 13.625 16.0625 13.625C16.2385 13.625 16.4145 13.5576 16.5486 13.4236L18.6111 11.3611C18.8799 11.0922 18.8799 10.6578 18.6111 10.3889C18.3423 10.1201 17.9077 10.1201 17.6389 10.3889L16.75 11.2779V8.125C16.75 7.74481 16.442 7.4375 16.0625 7.4375C15.683 7.4375 15.375 7.74481 15.375 8.125V11.2779L14.4861 10.3889C14.2173 10.1201 13.7828 10.1201 13.5139 10.3889ZM10.5625 8.8125H14C14.3795 8.8125 14.6875 8.50519 14.6875 8.125C14.6875 7.74481 14.3795 7.4375 14 7.4375H10.5625C10.183 7.4375 9.875 7.74481 9.875 8.125C9.875 8.50519 10.183 8.8125 10.5625 8.8125Z" fill="#E3B36F"/>
</svg>
