<svg width="124" height="69" viewBox="0 0 124 69" fill="none" xmlns="http://www.w3.org/2000/svg">
<g clip-path="url(#clip0_89_21321)">
<path d="M4.31287 29.6512L-4.96875 25.0173V61.8729C-4.96875 65.5235 -2.00937 68.4829 1.64122 68.4829H194.479C195.088 68.4829 195.581 67.9896 195.581 67.3812V45.05C195.581 44.1239 195.386 43.2082 195.01 42.3621L191.619 34.7435C190.314 31.812 187.092 30.241 183.979 31.0182L183.042 31.252C179.618 32.1067 176.127 30.1207 175.111 26.7407L173.596 21.6984C171.74 15.5198 163.039 15.3879 160.996 21.5073L159.19 26.9174C157.972 30.5666 153.538 31.9522 150.459 29.6461C147.401 27.3564 143 28.7042 141.748 32.3134L134.437 53.4027C132.889 57.8701 126.728 58.2728 124.611 54.045C122.887 50.6021 118.198 50.0576 115.73 53.0137L109.853 60.0561C107.435 62.9536 103.086 63.2417 100.306 60.6886L71.7534 34.4588C68.9357 31.8703 64.5155 32.2076 62.1231 35.1936L49.6997 50.6998C46.3385 54.8951 39.6414 53.537 38.1801 48.3637L29.6432 18.1415C27.9501 12.1476 19.6646 11.6077 17.2081 17.3312L13.3395 26.3444C11.8407 29.8365 7.71291 31.3487 4.31287 29.6512Z" fill="url(#paint0_linear_89_21321)" stroke="url(#paint1_linear_89_21321)" stroke-width="1.04005" stroke-linecap="round"/>
</g>
<defs>
<linearGradient id="paint0_linear_89_21321" x1="160.717" y1="-33.9717" x2="160.717" y2="60.3516" gradientUnits="userSpaceOnUse">
<stop stop-color="#5ED5A8"/>
<stop offset="1" stop-color="#5ED5A8" stop-opacity="0"/>
</linearGradient>
<linearGradient id="paint1_linear_89_21321" x1="95.3062" y1="63.3749" x2="95.3062" y2="68.4829" gradientUnits="userSpaceOnUse">
<stop stop-color="#5ED5A8"/>
<stop offset="0.649462" stop-opacity="0"/>
</linearGradient>
<clipPath id="clip0_89_21321">
<rect width="200.55" height="68.3031" fill="white" transform="translate(0.996826 0.179749)"/>
</clipPath>
</defs>
</svg>
