<svg width="24" height="23" viewBox="0 0 24 23" fill="none" xmlns="http://www.w3.org/2000/svg">
<path d="M2 6.78385V19.6786C2 20.4431 2.94 20.876 3.6 20.4154L5.31 19.2365C5.71 18.9602 6.27 18.997 6.63 19.3286L8.29 20.8667C8.68 21.226 9.32 21.226 9.71 20.8667L11.39 19.3194C11.74 18.997 12.3 18.9602 12.69 19.2365L14.4 20.4154C15.06 20.8667 16 20.4339 16 19.6786V4.02069C16 3.00754 16.9 2.17859 18 2.17859H7H6C3 2.17859 2 3.82727 2 5.8628V6.78385Z" fill="url(#paint0_linear_70_8072)"/>
<path d="M18.01 2.17859V3.56017C18.67 3.56017 19.3 3.80885 19.76 4.22333C20.24 4.67464 20.5 5.2549 20.5 5.8628V8.09175C20.5 8.77333 20.17 9.08648 19.42 9.08648H17.5V4.0299C17.5 3.77201 17.73 3.56017 18.01 3.56017V2.17859ZM18.01 2.17859C16.9 2.17859 16 3.00754 16 4.0299V10.4681H19.42C21 10.4681 22 9.54701 22 8.09175V5.8628C22 4.84964 21.55 3.92859 20.83 3.25622C20.1 2.59306 19.11 2.1878 18.01 2.17859C18.02 2.17859 18.01 2.17859 18.01 2.17859Z" fill="url(#paint1_linear_70_8072)"/>
<defs>
<linearGradient id="paint0_linear_70_8072" x1="19.3817" y1="22.5283" x2="0.0198212" y2="20.7653" gradientUnits="userSpaceOnUse">
<stop stop-color="#5D3889"/>
<stop offset="1" stop-color="#596CB5"/>
</linearGradient>
<linearGradient id="paint1_linear_70_8072" x1="22.5181" y1="11.0768" x2="15.2416" y2="10.5086" gradientUnits="userSpaceOnUse">
<stop stop-color="#5D3889"/>
<stop offset="1" stop-color="#596CB5"/>
</linearGradient>
</defs>
</svg>
