<svg width="25" height="24" viewBox="0 0 25 24" fill="none" xmlns="http://www.w3.org/2000/svg">
<path fill-rule="evenodd" clip-rule="evenodd" d="M11.7752 18.0856C11.7752 18.4818 12.1037 18.8103 12.4999 18.8103C12.896 18.8103 13.2246 18.4818 13.2246 18.0856V17.5252H13.8526C15.2826 17.5252 16.4421 16.3174 16.4517 14.8391C16.4517 13.1096 15.4372 12.5492 14.6836 12.2883L13.2246 11.7742V8.50075H13.5724C14.3551 8.50075 14.9928 9.18676 14.9928 10.0274C14.9928 10.4235 15.3213 10.752 15.7174 10.752C16.1136 10.752 16.4421 10.4235 16.4421 10.0274C16.4421 8.3848 15.157 7.05143 13.5724 7.05143H13.2246V6.49102C13.2246 6.09487 12.896 5.76636 12.4999 5.76636C12.1037 5.76636 11.7752 6.09487 11.7752 6.49102V7.05143H11.1472C9.71722 7.05143 8.5481 8.24953 8.5481 9.73751C8.5481 11.467 9.56262 12.0274 10.3163 12.2883L11.7752 12.8024V16.0759H11.4274C10.6448 16.0759 10.0071 15.3899 10.0071 14.5493C10.0071 14.1531 9.67857 13.8246 9.28242 13.8246C8.88627 13.8246 8.55776 14.1531 8.55776 14.5493C8.55776 16.1918 9.84283 17.5252 11.4274 17.5252H11.7752V18.0856ZM11.7752 11.2635V8.50075H11.1472C10.5192 8.50075 9.99742 9.06116 9.99742 9.73751C9.99742 10.5781 10.2969 10.7424 10.7897 10.9163L11.7752 11.2635ZM13.2246 13.3131V16.0759H13.8526C14.4807 16.0759 15.0024 15.5155 15.0024 14.8391C15.0024 13.9985 14.7029 13.8343 14.2101 13.6603L13.2246 13.3131Z" fill="url(#paint0_linear_965_1597)"/>
<path d="M12.4999 22.6751C6.7702 22.6751 2.11304 18.018 2.11304 12.2883C2.11304 6.55865 6.7702 1.90149 12.4999 1.90149C18.2295 1.90149 22.8867 6.55865 22.8867 12.2883C22.8867 18.018 18.2295 22.6751 12.4999 22.6751ZM12.4999 3.35081C7.57216 3.35081 3.56236 7.36061 3.56236 12.2883C3.56236 17.216 7.57216 21.2258 12.4999 21.2258C17.4276 21.2258 21.4374 17.216 21.4374 12.2883C21.4374 7.36061 17.4276 3.35081 12.4999 3.35081Z" fill="url(#paint1_linear_965_1597)"/>
<defs>
<linearGradient id="paint0_linear_965_1597" x1="17.1343" y1="19.7682" x2="7.53167" y2="19.1404" gradientUnits="userSpaceOnUse">
<stop stop-color="#5D3889"/>
<stop offset="1" stop-color="#596CB5"/>
</linearGradient>
<linearGradient id="paint1_linear_965_1597" x1="24.6806" y1="24.2007" x2="-0.374728" y2="21.4975" gradientUnits="userSpaceOnUse">
<stop stop-color="#5D3889"/>
<stop offset="1" stop-color="#596CB5"/>
</linearGradient>
</defs>
</svg>
