<svg width="24" height="24" viewBox="0 0 24 24" fill="none" xmlns="http://www.w3.org/2000/svg">
<path d="M13.4953 2.99894C12.0752 2.99894 10.7401 3.39577 9.6035 4.08457C9.43323 4.18831 9.31114 4.35545 9.26409 4.54921C9.21705 4.74297 9.2489 4.94748 9.35264 5.11775C9.45639 5.28803 9.62352 5.41012 9.81729 5.45716C10.011 5.50421 10.2156 5.47235 10.3858 5.36861C11.2929 4.81588 12.353 4.50124 13.4953 4.50124C14.5778 4.4985 15.6409 4.78906 16.5715 5.34205C17.5021 5.89503 18.2655 6.68979 18.7807 7.64188C19.2958 8.59397 19.5434 9.66782 19.4972 10.7494C19.451 11.8309 19.1126 12.8797 18.5181 13.7843C18.4588 13.8667 18.4169 13.9602 18.3947 14.0591C18.3726 14.1581 18.3707 14.2606 18.3892 14.3603C18.4077 14.4601 18.4463 14.555 18.5025 14.6395C18.5587 14.7239 18.6315 14.7961 18.7163 14.8516C18.8012 14.9072 18.8965 14.945 18.9963 14.9628C19.0962 14.9805 19.1987 14.9778 19.2975 14.9549C19.3963 14.932 19.4894 14.8893 19.5713 14.8294C19.6532 14.7695 19.7221 14.6936 19.7738 14.6064C20.5476 13.4244 20.9983 12.0156 20.9983 10.502C20.9953 8.51295 20.2039 6.60627 18.7974 5.19983C17.391 3.7934 15.4843 3.00194 13.4953 2.99894ZM7.84042 6.02906C7.7191 6.03404 7.6008 6.06837 7.49564 6.12909C7.39049 6.18981 7.30163 6.27512 7.23667 6.3777C6.50126 7.49263 6.07791 8.78419 6.01062 10.1181C5.94333 11.452 6.23454 12.7796 6.854 13.9629L3.65665 17.1631C3.23723 17.5866 3.00195 18.1586 3.00195 18.7547C3.00195 19.3508 3.23723 19.9227 3.65665 20.3463C4.08019 20.7657 4.65217 21.001 5.24824 21.001C5.84431 21.001 6.41629 20.7657 6.83983 20.3463L10.0372 17.1433C11.2084 17.7576 12.5216 18.0501 13.8428 17.9908C15.164 17.9315 16.4457 17.5227 17.5572 16.806C17.6484 16.757 17.7284 16.6897 17.7924 16.6083C17.8563 16.5269 17.9028 16.4332 17.9288 16.3331C17.9548 16.2329 17.9598 16.1284 17.9436 16.0262C17.9273 15.924 17.8901 15.8263 17.8343 15.7391C17.7785 15.652 17.7053 15.5773 17.6192 15.5198C17.5332 15.4622 17.4362 15.4231 17.3343 15.4049C17.2325 15.3866 17.1279 15.3896 17.0272 15.4136C16.9266 15.4377 16.832 15.4823 16.7494 15.5446C15.814 16.1483 14.7 16.497 13.4982 16.497C12.4138 16.5008 11.3489 16.21 10.4169 15.6557C9.485 15.1014 8.72112 14.3044 8.20685 13.3498C7.69258 12.3952 7.44725 11.3188 7.49703 10.2356C7.54682 9.15244 7.88986 8.10313 8.48953 7.19972C8.56682 7.08506 8.61097 6.9513 8.6171 6.81316C8.62323 6.67502 8.59111 6.53786 8.52429 6.41681C8.45746 6.29576 8.35851 6.1955 8.23835 6.12708C8.11818 6.05866 7.97863 6.02474 7.84042 6.02906ZM7.69586 15.2413C8.01333 15.6296 8.36764 15.9868 8.75598 16.3042L5.77405 19.2833C5.70573 19.3552 5.62351 19.4124 5.53239 19.4515C5.44127 19.4906 5.34315 19.5108 5.24399 19.5108C5.14483 19.5108 5.04671 19.4906 4.95558 19.4515C4.86446 19.4124 4.78225 19.3552 4.71393 19.2833C4.64206 19.215 4.58483 19.1328 4.54573 19.0417C4.50662 18.9506 4.48646 18.8524 4.48646 18.7533C4.48646 18.6541 4.50662 18.556 4.54573 18.4649C4.58483 18.3738 4.64206 18.2915 4.71393 18.2232L7.69586 15.2413Z" fill="black"/>
<path d="M13.2004 5.29796C13.2908 5.25849 13.3881 5.23723 13.4868 5.23539C13.5878 5.23346 13.6882 5.25194 13.7819 5.28972C13.8757 5.3275 13.9608 5.38381 14.0322 5.45526C14.1037 5.52671 14.16 5.61185 14.1978 5.70557C14.2356 5.7993 14.254 5.89968 14.2521 6.00071V6.7462C14.2503 6.78429 14.2455 6.8222 14.2379 6.85958C14.5169 6.94241 14.7769 7.07916 15.0033 7.26208C15.2387 7.46139 15.4277 7.7098 15.557 7.98989C15.6862 8.26998 15.7527 8.57496 15.7516 8.88343C15.7579 8.98577 15.7432 9.08831 15.7083 9.18474C15.6735 9.28117 15.6193 9.36945 15.5491 9.44414C15.4788 9.51883 15.394 9.57835 15.2999 9.61903C15.2058 9.65972 15.1044 9.68071 15.0019 9.68071C14.8993 9.68071 14.7979 9.65972 14.7038 9.61903C14.6097 9.57835 14.5249 9.51883 14.4546 9.44414C14.3844 9.36945 14.3302 9.28117 14.2954 9.18474C14.2605 9.08831 14.2458 8.98577 14.2521 8.88343C14.2521 8.62549 14.1784 8.52628 14.0565 8.42424C13.9318 8.3222 13.7192 8.2485 13.4953 8.2485C13.2968 8.24501 13.1026 8.30674 12.9426 8.42424C12.8207 8.52628 12.7441 8.62549 12.7441 8.88627C12.7441 9.05634 12.7838 9.1187 12.9652 9.2831C13.2404 9.49697 13.5368 9.68218 13.8496 9.83584C14.2266 10.0399 14.649 10.2553 15.0288 10.5955C15.2481 10.7847 15.4257 11.0175 15.5501 11.2791C15.6746 11.5406 15.7432 11.8253 15.7516 12.1148C15.753 12.4231 15.687 12.7279 15.5583 13.008C15.4295 13.288 15.241 13.5366 15.0061 13.7362C14.7798 13.9191 14.5198 14.0558 14.2408 14.1387C14.2474 14.1761 14.2512 14.214 14.2521 14.252V14.9975C14.2521 15.1967 14.173 15.3878 14.0321 15.5287C13.8912 15.6695 13.7002 15.7487 13.501 15.7487C13.3017 15.7487 13.1107 15.6695 12.9698 15.5287C12.829 15.3878 12.7498 15.1967 12.7498 14.9975V14.252C12.7488 14.2142 12.7507 14.1763 12.7555 14.1387C12.4765 14.0559 12.2165 13.9191 11.9902 13.7362C11.5508 13.3762 11.2503 12.7781 11.2503 12.1148C11.2391 12.01 11.2501 11.9041 11.2826 11.8038C11.315 11.7035 11.3682 11.6112 11.4386 11.5329C11.509 11.4545 11.5952 11.3918 11.6914 11.3489C11.7877 11.306 11.8919 11.2838 11.9972 11.2838C12.1026 11.2838 12.2068 11.306 12.3031 11.3489C12.3993 11.3918 12.4855 11.4545 12.5559 11.5329C12.6263 11.6112 12.6795 11.7035 12.7119 11.8038C12.7444 11.9041 12.7553 12.01 12.7441 12.1148C12.7441 12.3727 12.8207 12.472 12.9454 12.5712C13.1043 12.6891 13.2974 12.7518 13.4953 12.7497C13.6958 12.752 13.8917 12.6894 14.0537 12.5712C14.1784 12.472 14.2521 12.3699 14.2521 12.1148C14.2521 11.9419 14.2096 11.8767 14.0282 11.7123C13.8439 11.5507 13.518 11.3608 13.1438 11.1624C12.7668 10.9583 12.3445 10.7429 11.9646 10.4027C11.5848 10.0626 11.2503 9.5212 11.2503 8.88343C11.2482 8.57534 11.3135 8.27051 11.4419 7.99039C11.5702 7.71028 11.7583 7.46168 11.993 7.26208C12.2193 7.07916 12.4793 6.94241 12.7583 6.85958C12.7526 6.82205 12.7498 6.78415 12.7498 6.7462V6.00071C12.7479 5.90207 12.7655 5.80401 12.8015 5.71216C12.8376 5.62031 12.8913 5.53645 12.9598 5.46538C13.0282 5.39431 13.11 5.33742 13.2004 5.29796Z" fill="#E3B36F"/>
</svg>
