<svg width="27" height="26" viewBox="0 0 27 26" fill="none" xmlns="http://www.w3.org/2000/svg">
<g clip-path="url(#clip0_100_228)">
<path d="M26.054 0.737427H0.987267C0.983209 0.737427 0.979919 0.740717 0.979919 0.744775V25.8115C0.979919 25.8155 0.983209 25.8188 0.987267 25.8188H26.054C26.058 25.8188 26.0613 25.8155 26.0613 25.8115V0.744775C26.0613 0.740717 26.058 0.737427 26.054 0.737427Z" fill="#1877F2"/>
<path d="M18.3997 16.9031L18.9581 13.2781H15.48V10.9267C15.48 9.93717 15.965 8.96723 17.5228 8.96723H19.1051V5.88104C19.1051 5.88104 17.6697 5.63611 16.2981 5.63611C13.4324 5.63611 11.5611 7.37025 11.5611 10.5152V13.2781H8.37689V16.9031H11.5611V25.8188H15.48V16.9031H18.3997Z" fill="#4C4C4C"/>
</g>
<defs>
<clipPath id="clip0_100_228">
<rect x="0.979919" y="0.737427" width="25.0814" height="25.0814" rx="12.5407" fill="white"/>
</clipPath>
</defs>
</svg>
