<svg width="39" height="39" viewBox="0 0 39 39" fill="none" xmlns="http://www.w3.org/2000/svg">
<path fill-rule="evenodd" clip-rule="evenodd" d="M5.46134 20.5307C7.99066 15.4508 13.2345 11.9569 19.2887 11.9569C27.8065 11.9569 34.7231 18.8734 34.7231 27.3913C34.7231 28.4563 33.8588 29.3206 32.7938 29.3206C31.7288 29.3206 30.8645 28.4563 30.8645 27.3913C30.8645 21.0034 25.6766 15.8155 19.2887 15.8155C12.9007 15.8155 7.71283 21.0034 7.71283 27.3913C7.71283 33.7792 12.9007 38.9671 19.2887 38.9671C20.3536 38.9671 21.218 38.1028 21.218 37.0378C21.218 35.9729 20.3536 35.1085 19.2887 35.1085C15.0288 35.1085 11.5714 31.6512 11.5714 27.3913C11.5714 23.1314 15.0288 19.6741 19.2887 19.6741C23.5486 19.6741 27.0059 23.1314 27.0059 27.3913C27.0059 30.5862 29.5989 33.1792 32.7938 33.1792C35.9887 33.1792 38.5817 30.5862 38.5817 27.3913C38.5817 16.7435 29.9365 8.09826 19.2887 8.09826C11.7219 8.09826 5.1662 12.4624 2.00793 18.8098C1.53332 19.7628 1.92106 20.9224 2.87414 21.397C3.82721 21.8716 4.98673 21.4838 5.46134 20.5307ZM6.45496 35.9632C4.81312 33.5111 3.85422 30.5631 3.85422 27.3913C3.85422 26.3263 2.98989 25.462 1.92491 25.462C0.859934 25.462 -0.00439453 26.3263 -0.00439453 27.3913C-0.00439453 31.356 1.19566 35.0449 3.25037 38.1125C3.84266 38.9961 5.04069 39.2334 5.92624 38.6411C6.80986 38.0488 7.04726 36.8488 6.45496 35.9632V35.9632ZM5.02529 9.15939C8.95722 6.07829 13.9098 4.23965 19.2887 4.23965C24.6598 4.23965 29.6046 6.07249 33.5346 9.14588C34.3738 9.80184 35.5875 9.65327 36.2434 8.81595C36.8994 7.97671 36.7509 6.76319 35.9116 6.10723C31.3276 2.52065 25.555 0.381042 19.2887 0.381042C13.0126 0.381042 7.2324 2.52643 2.64451 6.12265C1.8072 6.78054 1.6606 7.99409 2.31657 8.83141C2.97446 9.66873 4.18798 9.81728 5.02529 9.15939V9.15939Z" fill="url(#paint0_linear_89_17106)"/>
<defs>
<linearGradient id="paint0_linear_89_17106" x1="41.9139" y1="41.8007" x2="-4.6253" y2="36.7798" gradientUnits="userSpaceOnUse">
<stop stop-color="#5D3889"/>
<stop offset="1" stop-color="#596CB5"/>
</linearGradient>
</defs>
</svg>
