<svg width="13" height="13" viewBox="0 0 13 13" fill="none" xmlns="http://www.w3.org/2000/svg">
<g clip-path="url(#clip0_89_23443)">
<path d="M5.37524 12.3318H4.62524C4.21162 12.3318 3.87524 11.9954 3.87524 11.5818V10.0818H2.37524C1.96162 10.0818 1.62524 9.74541 1.62524 9.33179V5.20679C1.62524 4.79316 1.96162 4.45679 2.37524 4.45679H3.12524C3.53887 4.45679 3.87524 4.79316 3.87524 5.20679V7.83179H6.12524V11.5818C6.12524 11.9954 5.78887 12.3318 5.37524 12.3318ZM2.37524 5.20679V9.33179H3.87524C4.28887 9.33179 4.62524 9.66816 4.62524 10.0818V11.5818H5.37524V8.58179H3.12524V5.20679H2.37524Z" fill="#1B232A"/>
<path d="M6.12524 8.58179H3.12524V6.33179H5.37524C5.78887 6.33179 6.12524 6.66816 6.12524 7.08179V8.58179ZM3.87524 7.83179H5.37524V7.08141L3.87524 7.08179V7.83179ZM8.37524 12.3318H7.62524C7.21162 12.3318 6.87524 11.9954 6.87524 11.5818V7.83179H9.12524V5.20679C9.12524 4.79316 9.46162 4.45679 9.87524 4.45679H10.6252C11.0389 4.45679 11.3752 4.79316 11.3752 5.20679V9.33179C11.3752 9.74541 11.0389 10.0818 10.6252 10.0818H9.12524V11.5818C9.12524 11.9954 8.78887 12.3318 8.37524 12.3318ZM7.62524 8.58179V11.5818H8.37524V10.0818C8.37524 9.66816 8.71162 9.33179 9.12524 9.33179H10.6252V5.20679H9.87524V8.58179H7.62524Z" fill="#1B232A"/>
<path d="M9.87524 8.58179H6.87524V7.08179C6.87524 6.66816 7.21162 6.33179 7.62524 6.33179H9.87524V8.58179ZM7.62524 7.83179H9.12524V7.08179H7.62524V7.83179ZM5.00024 3.33179C4.37999 3.33179 3.87524 2.82704 3.87524 2.20679C3.87524 1.58654 4.37999 1.08179 5.00024 1.08179C5.62049 1.08179 6.12524 1.58654 6.12524 2.20679C6.12524 2.82704 5.62049 3.33179 5.00024 3.33179ZM5.00024 1.83179C4.90369 1.83611 4.81252 1.8775 4.74572 1.94736C4.67892 2.01721 4.64164 2.11014 4.64164 2.20679C4.64164 2.30344 4.67892 2.39637 4.74572 2.46622C4.81252 2.53607 4.90369 2.57747 5.00024 2.58179C5.0968 2.57747 5.18797 2.53607 5.25477 2.46622C5.32156 2.39637 5.35884 2.30344 5.35884 2.20679C5.35884 2.11014 5.32156 2.01721 5.25477 1.94736C5.18797 1.8775 5.0968 1.83611 5.00024 1.83179ZM8.00024 3.33179C7.37999 3.33179 6.87524 2.82704 6.87524 2.20679C6.87524 1.58654 7.37999 1.08179 8.00024 1.08179C8.62049 1.08179 9.12524 1.58654 9.12524 2.20679C9.12524 2.82704 8.62049 3.33179 8.00024 3.33179ZM8.00024 1.83179C7.90079 1.83179 7.8054 1.8713 7.73508 1.94162C7.66475 2.01195 7.62524 2.10733 7.62524 2.20679C7.62524 2.30624 7.66475 2.40163 7.73508 2.47195C7.8054 2.54228 7.90079 2.58179 8.00024 2.58179C8.0997 2.58179 8.19508 2.54228 8.26541 2.47195C8.33574 2.40163 8.37524 2.30624 8.37524 2.20679C8.37524 2.10733 8.33574 2.01195 8.26541 1.94162C8.19508 1.8713 8.0997 1.83179 8.00024 1.83179Z" fill="#E3B36F"/>
<path d="M5.00024 4.45679C4.90079 4.45679 4.80541 4.41728 4.73508 4.34695C4.66475 4.27663 4.62524 4.18124 4.62524 4.08179V3.33179C4.62524 3.23233 4.66475 3.13695 4.73508 3.06662C4.80541 2.9963 4.90079 2.95679 5.00024 2.95679C5.0997 2.95679 5.19508 2.9963 5.26541 3.06662C5.33574 3.13695 5.37524 3.23233 5.37524 3.33179V4.08179C5.37524 4.18124 5.33574 4.27663 5.26541 4.34695C5.19508 4.41728 5.0997 4.45679 5.00024 4.45679ZM8.00024 4.45679C7.90079 4.45679 7.8054 4.41728 7.73508 4.34695C7.66475 4.27663 7.62524 4.18124 7.62524 4.08179V2.95679C7.62524 2.85733 7.66475 2.76195 7.73508 2.69162C7.8054 2.6213 7.90079 2.58179 8.00024 2.58179C8.0997 2.58179 8.19508 2.6213 8.26541 2.69162C8.33574 2.76195 8.37524 2.85733 8.37524 2.95679V4.08179C8.37524 4.18124 8.33574 4.27663 8.26541 4.34695C8.19508 4.41728 8.0997 4.45679 8.00024 4.45679ZM6.50024 5.58179C6.40079 5.58179 6.30541 5.54228 6.23508 5.47195C6.16475 5.40163 6.12524 5.30624 6.12524 5.20679V4.45679C6.12524 4.35733 6.16475 4.26195 6.23508 4.19162C6.30541 4.1213 6.40079 4.08179 6.50024 4.08179C6.5997 4.08179 6.69508 4.1213 6.76541 4.19162C6.83574 4.26195 6.87524 4.35733 6.87524 4.45679V5.20679C6.87524 5.30624 6.83574 5.40163 6.76541 5.47195C6.69508 5.54228 6.5997 5.58179 6.50024 5.58179Z" fill="#E3B36F"/>
<path d="M8.00024 4.45679H5.00024C4.90079 4.45679 4.80541 4.41728 4.73508 4.34695C4.66475 4.27663 4.62524 4.18124 4.62524 4.08179C4.62524 3.98233 4.66475 3.88695 4.73508 3.81662C4.80541 3.7463 4.90079 3.70679 5.00024 3.70679H8.00024C8.0997 3.70679 8.19508 3.7463 8.26541 3.81662C8.33574 3.88695 8.37524 3.98233 8.37524 4.08179C8.37524 4.18124 8.33574 4.27663 8.26541 4.34695C8.19508 4.41728 8.0997 4.45679 8.00024 4.45679Z" fill="#E3B36F"/>
</g>
<defs>
<clipPath id="clip0_89_23443">
<rect width="12" height="12" fill="white" transform="translate(0.500244 0.706787)"/>
</clipPath>
</defs>
</svg>
