<svg width="26" height="26" viewBox="0 0 26 26" fill="none" xmlns="http://www.w3.org/2000/svg">
<g clip-path="url(#clip0_100_35)">
<path d="M13.3484 18.8431C10.7618 18.8431 8.6456 17.1187 8.01857 14.7673L2.76715 20.0188C4.96177 23.4674 8.88074 25.8188 13.3484 25.8188C15.7781 25.8188 18.0511 25.1134 20.0106 23.8593L14.7592 18.6079C14.2889 18.7647 13.8186 18.8431 13.3484 18.8431Z" fill="#34A853"/>
<path d="M25.8891 11.5538C25.8107 11.1619 25.4972 10.9268 25.1053 10.9268H13.3484C12.8781 10.9268 12.5646 11.2403 12.5646 11.7106V15.6295C12.5646 16.0998 12.8781 16.4133 13.3484 16.4133H17.5025C16.7971 17.5106 15.7781 18.216 14.7592 18.6079L20.0106 23.8594C23.5377 21.6647 25.8891 17.7458 25.8891 13.2781C25.8891 13.043 25.8891 12.8862 25.8891 12.7295C25.9674 12.416 25.9674 12.0241 25.8891 11.5538Z" fill="#4285F4"/>
<path d="M7.78344 13.2781C7.78344 12.8078 7.86182 12.3375 7.9402 11.8673L2.76716 6.61584C1.51309 8.57533 0.807678 10.8483 0.807678 13.2781C0.807678 15.7078 1.51309 17.9809 2.76716 19.9403L8.01858 14.6889C7.86182 14.2186 7.78344 13.7484 7.78344 13.2781Z" fill="#FBBC05"/>
<path d="M23.1458 5.44019C22.2836 4.34288 21.1863 3.40232 20.0106 2.61853C18.0511 1.44284 15.7781 0.737427 13.3484 0.737427C8.88074 0.737427 4.96177 3.08881 2.76715 6.61588L8.01857 11.8673C8.6456 9.51591 10.8402 7.79157 13.3484 7.79157C13.8186 7.79157 14.2889 7.86995 14.7592 8.02671C15.4646 8.26184 16.0916 8.65374 16.7971 9.2024C17.0322 9.43753 17.3457 9.43753 17.6592 9.28078L22.9106 6.69426C23.1458 6.61588 23.3025 6.38074 23.3025 6.1456C23.3809 5.91046 23.3025 5.67533 23.1458 5.44019Z" fill="#EA4335"/>
</g>
<defs>
<clipPath id="clip0_100_35">
<rect width="25.0814" height="25.0814" fill="white" transform="translate(0.807678 0.737427)"/>
</clipPath>
</defs>
</svg>
