<svg width="24" height="23" viewBox="0 0 24 23" fill="none" xmlns="http://www.w3.org/2000/svg">
<path d="M20.83 7.71401L14.28 2.88769C13 1.94822 11 1.93901 9.72999 2.87848L3.17999 7.71401C2.23999 8.4048 1.66999 9.78638 1.86999 10.8732L3.12999 17.818C3.41999 19.3745 4.98999 20.5995 6.69999 20.5995H17.3C18.99 20.5995 20.59 19.3469 20.88 17.8087L22.14 10.864C22.32 9.78638 21.75 8.4048 20.83 7.71401ZM12.75 16.9153C12.75 17.293 12.41 17.6061 12 17.6061C11.59 17.6061 11.25 17.293 11.25 16.9153V14.1522C11.25 13.7745 11.59 13.4614 12 13.4614C12.41 13.4614 12.75 13.7745 12.75 14.1522V16.9153Z" fill="url(#paint0_linear_51_5707)"/>
<defs>
<linearGradient id="paint0_linear_51_5707" x1="23.9299" y1="21.9523" x2="-0.544262" y2="19.0364" gradientUnits="userSpaceOnUse">
<stop stop-color="#5D3889"/>
<stop offset="1" stop-color="#596CB5"/>
</linearGradient>
</defs>
</svg>
