<svg width="24" height="24" viewBox="0 0 24 24" fill="none" xmlns="http://www.w3.org/2000/svg">
<path d="M12 0C5.373 0 0 5.373 0 12C0 18.627 5.373 24 12 24C18.627 24 24 18.627 24 12C24 5.373 18.627 0 12 0ZM12 22.5C6.21094 22.5 1.5 17.7891 1.5 12C1.5 6.21094 6.21094 1.5 12 1.5C17.7891 1.5 22.5 6.21094 22.5 12C22.5 17.7891 17.7891 22.5 12 22.5Z" fill="#1A94AE"/>
<path d="M12 9C11.1724 9 10.5 9.67238 10.5 10.5V18C10.5 18.8276 11.1724 19.5 12 19.5C12.8276 19.5 13.5 18.8276 13.5 18V10.5C13.5 9.67238 12.8276 9 12 9ZM12 7.5C12.8276 7.5 13.5 6.82763 13.5 6C13.5 5.17237 12.8276 4.5 12 4.5C11.1724 4.5 10.5 5.17237 10.5 6C10.5 6.82763 11.1724 7.5 12 7.5Z" fill="#1A94AE"/>
</svg>
