<svg width="512" height="512" viewBox="0 0 512 512" fill="none" xmlns="http://www.w3.org/2000/svg">
<g filter="url(#filter0_d_954_398)">
<path d="M376.128 138.539C337.536 160.473 300.281 181.433 263.315 202.88C257.478 206.27 253.39 205.92 247.827 202.607C212.776 181.676 177.497 161.096 142.279 140.424C140.44 139.345 138.54 138.342 136.321 137.11C128.584 145.957 119.236 151.018 107.259 150.137C88.3195 148.769 75.1869 132.718 77.2237 113.338C79.0476 95.9797 96.2234 82.6343 113.703 85.051C132.247 87.6198 145.304 104.72 141.671 122.823C140.592 128.158 142.461 129.966 146.322 132.231C181.18 152.569 215.973 173.012 250.699 193.563C254.241 195.645 256.779 195.888 260.473 193.791C295.483 173.727 330.569 153.8 365.732 134.01C369.364 131.958 370.748 130.195 369.744 125.635C368.085 117.92 369.293 109.866 373.143 102.978C376.992 96.0905 383.22 90.8413 390.659 88.2126C397.992 85.6219 406.007 85.7259 413.27 88.5059C420.533 91.286 426.569 96.5605 430.298 103.385C434.027 110.21 435.204 118.139 433.62 125.753C432.036 133.366 427.793 140.167 421.652 144.938C415.434 149.817 407.651 152.261 399.761 151.813C391.871 151.366 384.414 148.057 378.788 142.506C377.77 141.277 376.879 139.948 376.128 138.539ZM425.117 119.311C425.223 113.01 422.824 106.924 418.447 102.39C414.069 97.8561 408.072 95.2444 401.771 95.1285C389.094 94.9157 377.831 105.996 377.679 118.84C377.645 121.96 378.229 125.056 379.398 127.948C380.567 130.841 382.297 133.473 384.489 135.694C386.681 137.914 389.291 139.678 392.168 140.884C395.046 142.089 398.134 142.713 401.254 142.719C404.373 142.807 407.478 142.265 410.383 141.126C413.288 139.986 415.933 138.273 418.161 136.088C420.389 133.903 422.153 131.291 423.348 128.408C424.544 125.526 425.145 122.432 425.117 119.311ZM133.022 117.199C132.981 114.13 132.334 111.1 131.121 108.281C129.907 105.462 128.149 102.911 125.948 100.772C123.747 98.633 121.146 96.9492 118.294 95.8165C115.442 94.6839 112.394 94.1247 109.326 94.1709C104.675 94.2169 100.144 95.6434 96.3056 98.2695C92.4675 100.896 89.4962 104.603 87.7686 108.92C86.0411 113.238 85.6353 117.972 86.6027 122.52C87.5701 127.069 89.8672 131.228 93.2023 134.469C96.5374 137.71 100.76 139.887 105.335 140.724C109.909 141.561 114.629 141.019 118.896 139.169C123.162 137.319 126.783 134.242 129.298 130.331C131.813 126.419 133.109 121.848 133.022 117.199Z" fill="black"/>
<path d="M94.024 208.671C75.1458 222.351 59.49 223.096 46.4485 210.921C40.8572 205.733 37.2574 198.753 36.2732 191.19C35.289 183.627 36.9823 175.957 41.0598 169.512C45.1372 163.066 51.3416 158.251 58.5973 155.9C65.853 153.549 73.7025 153.812 80.785 156.642C97.5048 163.36 103.843 178.059 99.2375 200.722L160.812 236.198C178.505 246.382 196.121 256.703 214.011 266.598C218.571 269.151 220.274 271.978 220.228 277.237C220 317.365 220.107 357.477 220.107 397.605V405.995L226.187 408.017C241.022 413.048 250.613 428.035 248.424 442.748C245.962 459.255 233.224 471.051 217.386 471.522C209.497 471.984 201.712 469.539 195.505 464.648C189.298 459.758 185.099 452.761 183.703 444.983C182.179 437.492 183.406 429.702 187.162 423.043C190.917 416.384 196.947 411.303 204.147 408.731C209.33 406.877 211.032 404.734 210.987 399.186C210.713 360.259 210.819 321.347 210.88 282.421C210.88 278.438 210.713 275.277 206.472 272.86C169.765 251.945 133.133 230.848 96.4864 209.796C95.6656 209.385 94.784 209.005 94.024 208.671ZM215.623 462.66C221.915 462.682 227.959 460.204 232.425 455.77C236.89 451.336 239.411 445.31 239.433 439.017C239.455 432.724 236.977 426.68 232.543 422.215C228.109 417.75 222.083 415.228 215.79 415.206C209.51 415.313 203.513 417.835 199.043 422.247C194.574 426.66 191.976 432.625 191.789 438.903C191.884 445.198 194.436 451.206 198.901 455.645C203.365 460.084 209.388 462.601 215.683 462.66H215.623ZM68.3363 210.419C74.5404 210.451 80.5032 208.018 84.9129 203.653C89.3227 199.289 91.8182 193.352 91.8504 187.148C91.8827 180.944 89.449 174.981 85.0849 170.571C80.7207 166.162 74.7836 163.666 68.5795 163.634C65.5075 163.618 62.4625 164.207 59.6183 165.368C56.7741 166.529 54.1863 168.239 52.0028 170.399C49.8194 172.56 48.0829 175.13 46.8925 177.962C45.7022 180.794 45.0813 183.833 45.0653 186.905C45.0494 189.977 45.6386 193.022 46.7995 195.866C47.9603 198.71 49.67 201.298 51.8309 203.482C53.9918 205.665 56.5616 207.402 59.3936 208.592C62.2256 209.782 65.2643 210.403 68.3363 210.419Z" fill="black"/>
<path d="M291.052 406.163V369.988C291.052 338.752 291.144 307.516 290.946 276.281C290.946 271.873 292.344 269.501 296.19 267.297C332.487 246.585 368.698 225.761 404.823 204.826C407.103 203.519 409.383 202.197 411.526 200.935C408.486 175.095 415.098 161.172 432.548 155.761C439.774 153.485 447.567 153.786 454.596 156.615C461.626 159.443 467.455 164.623 471.091 171.271C474.727 177.918 475.944 185.621 474.533 193.066C473.123 200.51 469.173 207.235 463.358 212.092C450.088 223.279 434.356 222.215 417.272 208.656C415.6 209.508 413.7 210.374 411.876 211.423C376.703 231.654 341.592 252.006 306.313 272.04C301.753 274.669 300.127 277.542 300.233 282.771C300.446 321.682 300.446 360.599 300.233 399.521C300.233 404.537 301.434 406.862 306.632 408.641C313.979 411.166 320.147 416.295 323.97 423.058C327.792 429.822 329.006 437.751 327.38 445.348C325.944 452.976 321.81 459.831 315.733 464.66C309.657 469.489 302.045 471.968 294.29 471.644C278.117 471.31 265.152 459.332 262.765 442.551C260.683 427.884 270.365 413.018 285.368 408.048C287.1 407.394 288.909 406.847 291.052 406.163ZM442.777 210.617C449.063 210.529 455.057 207.948 459.441 203.442C463.825 198.936 466.24 192.873 466.154 186.586C465.969 180.413 463.442 174.542 459.087 170.164C454.731 165.786 448.873 163.229 442.701 163.011C429.781 162.829 418.108 174.502 418.381 187.331C418.553 193.646 421.213 199.637 425.783 203.999C430.352 208.361 436.461 210.74 442.777 210.617ZM295.552 462.661C308.441 462.661 319.461 451.443 319.202 438.706C318.989 432.452 316.334 426.531 311.809 422.209C307.283 417.888 301.245 415.511 294.988 415.586C288.731 415.662 282.752 418.184 278.332 422.613C273.911 427.043 271.401 433.026 271.338 439.284C271.505 445.576 274.136 451.551 278.665 455.923C283.193 460.295 289.257 462.715 295.552 462.661Z" fill="black"/>
<path d="M88.7992 228.492C88.7992 263.953 88.936 298.791 88.6472 333.614C88.6472 339.177 90.3496 342.035 95.1527 344.756C127.072 362.874 158.855 381.357 190.714 399.718C183.023 409.705 182.947 409.72 172.474 403.701C143.595 386.981 114.715 370.261 85.6984 353.739C78.8129 349.832 75.9401 344.619 76.0009 336.837C76.2137 305.601 76.0009 274.365 76.0009 243.13C76.1225 231.502 76.1225 231.502 88.7992 228.492Z" fill="black"/>
<path d="M329.623 408.944L319.758 400.235C330.534 393.988 340.81 387.999 351.1 381.995C373.14 369.273 395.179 356.474 417.295 343.995C421.156 341.822 422.448 339.359 422.433 334.967C422.235 299.658 422.326 264.348 422.326 228.203L434.988 232.125V315.283C434.988 323.202 435.657 331.212 434.714 339.04C434.197 343.342 432.1 349.209 428.801 351.2C396.061 370.762 362.925 389.686 329.623 408.944Z" fill="black"/>
<path d="M360.581 98.8676C359.213 102.804 357.966 106.361 356.568 110.419L290.145 72.0855C280.584 66.5527 270.856 61.2936 261.508 55.4417C257.252 52.7665 254.151 52.8425 249.804 55.4417C220.605 72.5871 191.224 89.3069 161.888 106.24C159.639 107.531 157.328 108.687 154.699 110.1L150.914 98.2748C154.972 95.8884 159.046 93.4261 163.165 91.0397C191.026 74.9583 218.949 58.9832 246.764 42.765C252.525 39.4058 257.845 38.9346 263.666 42.309C295.252 60.6096 326.852 78.8494 358.468 97.0284C359.211 97.5947 359.917 98.2091 360.581 98.8676Z" fill="black"/>
<path d="M425.128 119.311C425.155 122.432 424.554 125.526 423.358 128.408C422.163 131.291 420.399 133.903 418.171 136.088C415.944 138.273 413.298 139.987 410.393 141.126C407.488 142.265 404.383 142.807 401.264 142.719C398.144 142.713 395.056 142.089 392.179 140.884C389.301 139.678 386.691 137.914 384.499 135.694C382.307 133.473 380.577 130.841 379.408 127.948C378.239 125.056 377.655 121.96 377.689 118.84C377.841 105.996 389.104 94.9157 401.781 95.1285C408.082 95.2444 414.08 97.8561 418.457 102.39C422.834 106.924 425.233 113.01 425.128 119.311ZM417.406 119.114C417.389 116.99 416.954 114.89 416.126 112.935C415.297 110.979 414.092 109.206 412.578 107.716C411.064 106.226 409.272 105.049 407.303 104.252C405.334 103.455 403.228 103.053 401.104 103.07C398.98 103.087 396.881 103.523 394.925 104.351C392.969 105.179 391.196 106.385 389.706 107.899C388.217 109.412 387.04 111.205 386.242 113.173C385.445 115.142 385.044 117.248 385.061 119.372C385.042 121.466 385.443 123.542 386.239 125.478C387.035 127.414 388.211 129.171 389.697 130.645C391.183 132.12 392.949 133.282 394.891 134.064C396.833 134.845 398.912 135.23 401.005 135.195C410.627 135.226 417.376 128.614 417.421 119.114H417.406Z" fill="white"/>
<path d="M133.05 117.199C133.153 123.379 130.818 129.351 126.551 133.822C122.285 138.294 116.429 140.906 110.251 141.093C107.135 141.205 104.029 140.695 101.113 139.594C98.1969 138.492 95.5295 136.821 93.2664 134.677C91.0034 132.534 89.1901 129.96 87.9324 127.108C86.6748 124.256 85.9979 121.182 85.9414 118.065C85.8848 114.948 86.4497 111.852 87.6031 108.956C88.7565 106.06 90.4753 103.423 92.6591 101.198C94.8429 98.9739 97.4479 97.2068 100.322 96.0003C103.196 94.7937 106.282 94.1718 109.399 94.171C115.589 94.0898 121.557 96.47 125.992 100.788C130.428 105.106 132.966 111.009 133.05 117.199ZM109.46 133.706C111.609 133.722 113.74 133.309 115.727 132.489C117.714 131.67 119.517 130.461 121.03 128.934C122.542 127.407 123.734 125.593 124.535 123.598C125.336 121.604 125.73 119.469 125.694 117.32C125.551 112.981 123.727 108.868 120.607 105.85C117.487 102.832 113.315 101.145 108.974 101.148C104.74 101.275 100.727 103.061 97.7978 106.12C94.8691 109.18 93.2602 113.268 93.3179 117.503C93.2115 127.139 99.8538 133.751 109.46 133.706Z" fill="white"/>
<path d="M215.675 462.66C209.38 462.601 203.357 460.084 198.893 455.645C194.428 451.206 191.876 445.198 191.781 438.903C191.965 432.612 194.569 426.634 199.052 422.217C203.535 417.799 209.55 415.282 215.843 415.191C218.958 415.202 222.042 415.826 224.916 417.029C227.791 418.232 230.4 419.988 232.596 422.2C234.791 424.411 236.53 427.032 237.712 429.915C238.894 432.798 239.497 435.886 239.486 439.001C239.475 442.117 238.85 445.201 237.648 448.075C236.445 450.95 234.688 453.559 232.477 455.754C230.266 457.95 227.645 459.688 224.762 460.871C221.879 462.053 218.791 462.656 215.675 462.645V462.66ZM215.949 455.06C220.308 455.121 224.513 453.454 227.646 450.424C230.779 447.393 232.585 443.246 232.669 438.887C232.538 434.541 230.719 430.416 227.598 427.388C224.476 424.36 220.298 422.667 215.949 422.669C211.722 422.719 207.678 424.401 204.664 427.365C201.649 430.328 199.898 434.343 199.776 438.568C199.728 440.723 200.11 442.866 200.901 444.872C201.692 446.877 202.875 448.704 204.381 450.246C205.888 451.788 207.687 453.013 209.673 453.85C211.66 454.687 213.793 455.119 215.949 455.121V455.06Z" fill="white"/>
<path d="M68.3969 210.419C63.7652 210.358 59.2558 208.923 55.4403 206.296C51.6249 203.67 48.6752 199.969 46.965 195.664C45.2549 191.36 44.8614 186.644 45.8343 182.115C46.8073 177.586 49.1029 173.448 52.4302 170.225C55.7575 167.003 59.9667 164.84 64.5243 164.012C69.0819 163.185 73.7827 163.728 78.0308 165.575C82.279 167.422 85.8832 170.488 88.3868 174.385C90.8903 178.283 92.1803 182.836 92.0935 187.467C92.0499 190.532 91.4019 193.557 90.1864 196.371C88.971 199.185 87.212 201.731 85.0105 203.863C82.809 205.995 80.2082 207.672 77.3573 208.797C74.5063 209.922 71.4613 210.473 68.3969 210.419ZM68.3969 203.047C70.5568 203.083 72.7026 202.693 74.7118 201.9C76.721 201.107 78.5543 199.926 80.107 198.424C81.6596 196.922 82.9012 195.129 83.7608 193.148C84.6203 191.166 85.0811 189.034 85.1167 186.874C85.1167 178.286 76.8632 170.261 68.2905 170.413C63.9374 170.622 59.8297 172.491 56.8108 175.634C53.7919 178.777 52.0909 182.957 52.0571 187.315C52.1685 191.547 53.9365 195.567 56.9809 198.509C60.0252 201.451 64.1027 203.08 68.3361 203.047H68.3969Z" fill="white"/>
<path d="M442.792 210.617C436.489 210.719 430.4 208.331 425.847 203.971C421.294 199.612 418.644 193.632 418.472 187.33C418.229 174.471 429.903 162.798 442.792 163.011C448.951 163.247 454.79 165.812 459.13 170.188C463.469 174.565 465.985 180.425 466.17 186.586C466.255 192.872 463.84 198.935 459.456 203.441C455.072 207.948 449.078 210.528 442.792 210.617ZM442.26 203.017C451.821 202.91 458.266 196.192 458.114 186.494C458.099 182.27 456.432 178.22 453.469 175.209C450.506 172.198 446.483 170.466 442.26 170.383C433.627 170.383 425.54 178.317 425.616 186.905C425.632 189.063 426.077 191.196 426.925 193.18C427.773 195.164 429.008 196.96 430.557 198.462C432.106 199.965 433.938 201.144 435.948 201.931C437.957 202.718 440.103 203.098 442.26 203.047V203.017Z" fill="white"/>
<path d="M295.557 462.66C292.441 462.698 289.348 462.122 286.455 460.965C283.561 459.807 280.925 458.092 278.695 455.915C276.464 453.739 274.685 451.144 273.457 448.28C272.23 445.416 271.579 442.338 271.541 439.222C271.503 436.106 272.079 433.014 273.236 430.12C274.394 427.227 276.11 424.59 278.286 422.36C280.463 420.13 283.057 418.351 285.921 417.123C288.785 415.896 291.863 415.244 294.979 415.207C301.273 415.227 307.315 417.686 311.833 422.069C316.352 426.451 318.995 432.415 319.208 438.705C319.466 451.443 308.446 462.6 295.557 462.66ZM295.465 455.061C299.808 455.109 303.993 453.437 307.106 450.41C310.219 447.382 312.007 443.245 312.079 438.903C311.937 434.564 310.113 430.451 306.992 427.433C303.872 424.414 299.7 422.728 295.359 422.73C293.266 422.722 291.193 423.13 289.259 423.929C287.325 424.728 285.569 425.904 284.093 427.387C282.617 428.87 281.45 430.632 280.66 432.57C279.87 434.507 279.472 436.583 279.49 438.675C279.369 448.175 286.087 455.091 295.465 455.121V455.061Z" fill="white"/>
<path d="M417.424 119.114C417.424 128.614 410.63 135.226 401.023 135.195C398.93 135.23 396.851 134.845 394.909 134.064C392.967 133.282 391.201 132.12 389.715 130.645C388.229 129.171 387.053 127.414 386.257 125.478C385.461 123.541 385.06 121.466 385.079 119.372C385.062 117.248 385.463 115.142 386.26 113.173C387.057 111.205 388.234 109.412 389.724 107.899C391.214 106.385 392.987 105.179 394.943 104.351C396.899 103.522 398.998 103.087 401.122 103.07C403.246 103.053 405.352 103.455 407.321 104.252C409.29 105.049 411.082 106.226 412.596 107.716C414.11 109.206 415.315 110.979 416.143 112.935C416.972 114.89 417.407 116.99 417.424 119.114Z" fill="url(#paint0_linear_954_398)"/>
<path d="M109.448 133.705C99.8109 133.705 93.1989 127.139 93.2749 117.502C93.2173 113.262 94.8305 109.17 97.7657 106.109C100.701 103.049 104.722 101.266 108.961 101.147C113.302 101.145 117.474 102.831 120.595 105.849C123.715 108.867 125.539 112.981 125.681 117.32C125.718 119.469 125.324 121.603 124.523 123.598C123.722 125.592 122.53 127.406 121.017 128.933C119.505 130.46 117.702 131.669 115.715 132.488C113.728 133.308 111.597 133.722 109.448 133.705Z" fill="url(#paint1_linear_954_398)"/>
<path d="M215.955 455.122C213.8 455.128 211.664 454.704 209.675 453.874C207.686 453.045 205.882 451.826 204.37 450.29C202.858 448.754 201.668 446.931 200.87 444.929C200.071 442.927 199.681 440.785 199.722 438.63C199.843 434.405 201.594 430.39 204.609 427.426C207.623 424.463 211.667 422.78 215.894 422.731C220.243 422.729 224.422 424.422 227.543 427.449C230.665 430.477 232.484 434.602 232.614 438.949C232.53 443.297 230.733 447.435 227.613 450.464C224.493 453.493 220.303 455.167 215.955 455.122Z" fill="url(#paint2_linear_954_398)"/>
<path d="M68.3407 203.048C64.102 203.089 60.0168 201.463 56.9659 198.52C53.915 195.577 52.1427 191.553 52.0312 187.316C52.065 182.958 53.766 178.778 56.7849 175.635C59.8038 172.492 63.9115 170.623 68.2647 170.414C76.8374 170.262 84.9845 178.287 85.0909 186.875C85.0553 189.038 84.5935 191.172 83.732 193.156C82.8705 195.139 81.6262 196.934 80.0704 198.436C78.5145 199.938 76.6776 201.119 74.6648 201.91C72.6521 202.701 70.503 203.088 68.3407 203.048Z" fill="url(#paint3_linear_954_398)"/>
<path d="M442.245 203.047C440.091 203.098 437.947 202.719 435.94 201.934C433.933 201.149 432.101 199.973 430.553 198.473C429.004 196.974 427.769 195.182 426.919 193.202C426.069 191.221 425.621 189.091 425.602 186.936C425.602 178.348 433.612 170.368 442.245 170.413C446.479 170.497 450.511 172.238 453.475 175.262C456.44 178.286 458.1 182.351 458.099 186.586C458.251 196.223 451.806 202.941 442.245 203.047Z" fill="url(#paint4_linear_954_398)"/>
<path d="M295.469 455.121C286.091 455.121 279.372 448.175 279.494 438.675C279.476 436.582 279.873 434.507 280.663 432.569C281.453 430.632 282.62 428.87 284.097 427.387C285.573 425.904 287.329 424.728 289.263 423.929C291.196 423.129 293.27 422.722 295.362 422.73C299.704 422.728 303.875 424.414 306.996 427.432C310.116 430.45 311.94 434.564 312.082 438.903C312.026 443.255 310.245 447.408 307.13 450.448C304.016 453.489 299.822 455.17 295.469 455.121Z" fill="url(#paint5_linear_954_398)"/>
</g>
<defs>
<filter id="filter0_d_954_398" x="-4" y="0" width="520" height="520" filterUnits="userSpaceOnUse" color-interpolation-filters="sRGB">
<feFlood flood-opacity="0" result="BackgroundImageFix"/>
<feColorMatrix in="SourceAlpha" type="matrix" values="0 0 0 0 0 0 0 0 0 0 0 0 0 0 0 0 0 0 127 0" result="hardAlpha"/>
<feOffset dy="4"/>
<feGaussianBlur stdDeviation="2"/>
<feComposite in2="hardAlpha" operator="out"/>
<feColorMatrix type="matrix" values="0 0 0 0 0 0 0 0 0 0 0 0 0 0 0 0 0 0 0.25 0"/>
<feBlend mode="normal" in2="BackgroundImageFix" result="effect1_dropShadow_954_398"/>
<feBlend mode="normal" in="SourceGraphic" in2="effect1_dropShadow_954_398" result="shape"/>
</filter>
<linearGradient id="paint0_linear_954_398" x1="385.048" y1="132.69" x2="419.815" y2="106.561" gradientUnits="userSpaceOnUse">
<stop stop-color="#5C3E8F"/>
<stop offset="1" stop-color="#5A64AE"/>
</linearGradient>
<linearGradient id="paint1_linear_954_398" x1="93.2435" y1="131.164" x2="128.363" y2="105.068" gradientUnits="userSpaceOnUse">
<stop stop-color="#5C3E8F"/>
<stop offset="1" stop-color="#5A64AE"/>
</linearGradient>
<linearGradient id="paint2_linear_954_398" x1="199.688" y1="452.594" x2="234.824" y2="425.959" gradientUnits="userSpaceOnUse">
<stop stop-color="#5C3E8F"/>
<stop offset="1" stop-color="#5A64AE"/>
</linearGradient>
<linearGradient id="paint3_linear_954_398" x1="52.0007" y1="200.503" x2="87.3794" y2="173.754" gradientUnits="userSpaceOnUse">
<stop stop-color="#5C3E8F"/>
<stop offset="1" stop-color="#5A64AE"/>
</linearGradient>
<linearGradient id="paint4_linear_954_398" x1="425.572" y1="200.504" x2="460.781" y2="174.333" gradientUnits="userSpaceOnUse">
<stop stop-color="#5C3E8F"/>
<stop offset="1" stop-color="#5A64AE"/>
</linearGradient>
<linearGradient id="paint5_linear_954_398" x1="279.462" y1="452.594" x2="314.508" y2="426.273" gradientUnits="userSpaceOnUse">
<stop stop-color="#5C3E8F"/>
<stop offset="1" stop-color="#5A64AE"/>
</linearGradient>
</defs>
</svg>
