<svg width="24" height="23" viewBox="0 0 24 23" fill="none" xmlns="http://www.w3.org/2000/svg">
<path d="M16 8.47454C15.59 8.47454 15.25 8.16139 15.25 7.78376V4.56007C15.25 3.56533 14.58 2.94823 13.5 2.94823H10.5C9.42 2.94823 8.75 3.56533 8.75 4.56007V7.78376C8.75 8.16139 8.41 8.47454 8 8.47454C7.59 8.47454 7.25 8.16139 7.25 7.78376V4.56007C7.25 2.80086 8.59 1.56665 10.5 1.56665H13.5C15.41 1.56665 16.75 2.80086 16.75 4.56007V7.78376C16.75 8.16139 16.41 8.47454 16 8.47454Z" fill="url(#paint0_linear_70_8052)"/>
<path d="M8.00003 16.7916C7.59003 16.7916 7.25003 16.4784 7.25003 16.1008C7.25003 15.7139 7.59003 15.41 8.00003 15.41H19.76C20.06 15.41 20.29 15.1705 20.26 14.8942L19.58 9.65342C19.34 7.86657 19 6.4021 15.6 6.4021H8.40003C5.00003 6.4021 4.66003 7.86657 4.43003 9.65342L3.53003 16.5613C3.24003 18.8271 4.00003 20.6784 7.51003 20.6784H16.49C19.65 20.6784 20.58 19.1771 20.53 17.2245C20.52 16.9758 20.3 16.7916 20.03 16.7916H8.00003Z" fill="url(#paint1_linear_70_8052)"/>
<defs>
<linearGradient id="paint0_linear_70_8052" x1="17.5704" y1="8.98183" x2="6.22863" y2="7.29906" gradientUnits="userSpaceOnUse">
<stop stop-color="#5D3889"/>
<stop offset="1" stop-color="#596CB5"/>
</linearGradient>
<linearGradient id="paint1_linear_70_8052" x1="22.005" y1="21.7268" x2="1.53175" y2="19.0876" gradientUnits="userSpaceOnUse">
<stop stop-color="#5D3889"/>
<stop offset="1" stop-color="#596CB5"/>
</linearGradient>
</defs>
</svg>
