<svg width="29" height="29" viewBox="0 0 29 29" fill="none" xmlns="http://www.w3.org/2000/svg">
<g clip-path="url(#clip0_89_21094)">
<path d="M10.7216 5.30758C10.9715 5.30758 11.2112 5.40677 11.3879 5.58332C11.5646 5.75988 11.6639 5.99934 11.6639 6.24903V11.7147C11.6648 11.8386 11.641 11.9614 11.5939 12.076C11.5469 12.1906 11.4775 12.2948 11.3898 12.3824C11.3022 12.47 11.1979 12.5393 11.0832 12.5863C10.9685 12.6333 10.8456 12.657 10.7216 12.6562H5.27722C5.15129 12.6597 5.02593 12.6379 4.90857 12.5921C4.79121 12.5464 4.68422 12.4776 4.59393 12.3898C4.50363 12.3021 4.43188 12.1971 4.38289 12.0811C4.33391 11.9652 4.3087 11.8406 4.30874 11.7147V6.27519C4.30607 6.14738 4.32929 6.02036 4.37702 5.90176C4.42474 5.78316 4.49598 5.67542 4.58645 5.58503C4.67692 5.49464 4.78475 5.42347 4.90346 5.37579C5.02217 5.32811 5.1493 5.30491 5.27722 5.30758H10.7216ZM10.7216 4H5.27722C4.67326 4 4.09404 4.23971 3.66698 4.66639C3.23992 5.09307 3 5.67177 3 6.27519L3 11.7147C3 12.3187 3.23971 12.8981 3.66658 13.3258C4.09346 13.7535 4.67266 13.9947 5.27722 13.9964H10.7216C11.3268 13.9947 11.9066 13.7538 12.3345 13.3262C12.7625 12.8987 13.0036 12.3193 13.0054 11.7147V6.27519C13.0036 5.67117 12.7622 5.09248 12.3341 4.66599C11.906 4.23949 11.3262 4 10.7216 4ZM22.7162 5.30758C22.9662 5.30758 23.2058 5.40677 23.3825 5.58332C23.5593 5.75988 23.6585 5.99934 23.6585 6.24903V11.7147C23.6594 11.8386 23.6356 11.9614 23.5886 12.076C23.5415 12.1906 23.4722 12.2948 23.3845 12.3824C23.2968 12.47 23.1926 12.5393 23.0779 12.5863C22.9632 12.6333 22.8402 12.657 22.7162 12.6562H17.2719C17.0219 12.6562 16.7823 12.557 16.6056 12.3804C16.4288 12.2039 16.3296 11.9644 16.3296 11.7147V6.27519C16.327 6.1496 16.3494 6.02475 16.3955 5.90789C16.4416 5.79103 16.5105 5.68449 16.5981 5.59446C16.6858 5.50443 16.7905 5.43271 16.9062 5.38346C17.0218 5.33421 17.1461 5.30842 17.2719 5.30758H22.7162ZM22.7162 4H17.2719C16.6679 4 16.0887 4.23971 15.6616 4.66639C15.2346 5.09307 14.9946 5.67177 14.9946 6.27519V11.7147C14.9946 12.3187 15.2344 12.8981 15.6612 13.3258C16.0881 13.7535 16.6673 13.9947 17.2719 13.9964H22.7162C23.3214 13.9947 23.9013 13.7538 24.3292 13.3262C24.7571 12.8987 24.9983 12.3193 25 11.7147V6.27519C24.9983 5.67117 24.7569 5.09248 24.3288 4.66599C23.9007 4.23949 23.3208 4 22.7162 4ZM10.7216 17.3373C10.8453 17.3373 10.9679 17.3616 11.0822 17.409C11.1965 17.4563 11.3004 17.5256 11.3879 17.613C11.4754 17.7005 11.5448 17.8042 11.5922 17.9185C11.6395 18.0327 11.6639 18.1551 11.6639 18.2788V23.7183C11.6648 23.8422 11.641 23.965 11.5939 24.0796C11.5469 24.1942 11.4775 24.2983 11.3898 24.3859C11.3022 24.4735 11.1979 24.5428 11.0832 24.5898C10.9685 24.6368 10.8456 24.6606 10.7216 24.6597H5.27722C5.15129 24.6632 5.02593 24.6415 4.90857 24.5957C4.79121 24.55 4.68422 24.4812 4.59393 24.3934C4.50363 24.3056 4.43188 24.2007 4.38289 24.0847C4.33391 23.9687 4.3087 23.8441 4.30874 23.7183V18.2788C4.30958 18.1531 4.3354 18.029 4.3847 17.9134C4.43399 17.7978 4.50578 17.6932 4.59589 17.6056C4.68599 17.518 4.79263 17.4492 4.90959 17.4031C5.02656 17.3571 5.15152 17.3347 5.27722 17.3373H10.7216ZM10.7216 16.0297H5.27722C4.67777 16.0297 4.10248 16.2658 3.67617 16.6868C3.24985 17.1079 3.00689 17.6799 3 18.2788L3 23.7183C3 24.3223 3.23971 24.9017 3.66658 25.3294C4.09346 25.7571 4.67266 25.9983 5.27722 26H10.7216C11.3268 25.9983 11.9066 25.7573 12.3345 25.3298C12.7625 24.9023 13.0036 24.3229 13.0054 23.7183V18.2788C13.0036 17.6747 12.7622 17.096 12.3341 16.6696C11.906 16.2431 11.3262 16.0036 10.7216 16.0036V16.0297ZM24.2867 20.2859H20.7139V16.7162C20.6968 16.5381 20.614 16.3728 20.4815 16.2525C20.349 16.1322 20.1764 16.0655 19.9973 16.0655C19.8183 16.0655 19.6457 16.1322 19.5132 16.2525C19.3807 16.3728 19.2978 16.5381 19.2808 16.7162V20.2859H15.7079C15.5187 20.2859 15.3373 20.361 15.2036 20.4946C15.0698 20.6283 14.9946 20.8095 14.9946 20.9985C14.9946 21.1875 15.0698 21.3688 15.2036 21.5024C15.3373 21.6361 15.5187 21.7111 15.7079 21.7111H19.2808V25.2808C19.2712 25.3806 19.2827 25.4812 19.3143 25.5763C19.346 25.6714 19.3972 25.7589 19.4647 25.833C19.5321 25.9072 19.6144 25.9664 19.7061 26.007C19.7978 26.0475 19.897 26.0685 19.9973 26.0685C20.0976 26.0685 20.1968 26.0475 20.2886 26.007C20.3803 25.9664 20.4625 25.9072 20.53 25.833C20.5975 25.7589 20.6487 25.6714 20.6803 25.5763C20.712 25.4812 20.7234 25.3806 20.7139 25.2808V21.7111H24.2867C24.4759 21.7111 24.6573 21.6361 24.7911 21.5024C24.9249 21.3688 25 21.1875 25 20.9985C25 20.8095 24.9249 20.6283 24.7911 20.4946C24.6573 20.361 24.4759 20.2859 24.2867 20.2859Z" fill="black"/>
</g>
<defs>
<clipPath id="clip0_89_21094">
<rect width="22" height="22" fill="white" transform="translate(3 4)"/>
</clipPath>
</defs>
</svg>
