<svg width="24" height="24" viewBox="0 0 24 24" fill="none" xmlns="http://www.w3.org/2000/svg">
<path d="M11.6349 20.2148C9.18574 20.2148 6.7461 19.8256 4.42037 19.0472C3.55653 18.7624 2.90153 18.1454 2.61675 17.367C2.33197 16.5886 2.42689 15.6962 2.89204 14.9178L4.09762 12.9054C4.36342 12.4592 4.60073 11.6239 4.60073 11.1018V9.10827C4.60073 5.22574 7.75233 2.07414 11.6349 2.07414C15.5174 2.07414 18.669 5.22574 18.669 9.10827V11.1018C18.669 11.6144 18.9063 12.4592 19.1721 12.9054L20.3777 14.9178C20.8239 15.6583 20.8998 16.5411 20.6055 17.348C20.3112 18.1549 19.6657 18.7719 18.8494 19.0472C16.5236 19.8351 14.084 20.2148 11.6349 20.2148ZM11.6349 3.50755C8.54023 3.50755 6.02465 6.02313 6.02465 9.11777V11.1112C6.02465 11.8802 5.72088 12.9908 5.32218 13.6458L4.1166 15.6678C3.86979 16.076 3.81284 16.5126 3.95523 16.8923C4.09762 17.272 4.42037 17.5568 4.87602 17.7087C9.24269 19.1611 14.046 19.1611 18.4127 17.7087C18.8209 17.5758 19.1341 17.272 19.2765 16.8733C19.4284 16.4747 19.381 16.038 19.1626 15.6678L17.957 13.6553C17.5583 13.0003 17.2546 11.8897 17.2546 11.1207V9.12726C17.2451 6.02313 14.7295 3.50755 11.6349 3.50755Z" fill="url(#paint0_linear_100_492)"/>
<path opacity="0.2" d="M15.4131 9.44053C15.4131 8.43347 15.013 7.46767 14.3009 6.75557C13.5888 6.04348 12.623 5.64343 11.6159 5.64342C10.6089 5.64342 9.64309 6.04348 8.93099 6.75557C8.2189 7.46766 7.81885 8.43347 7.81885 9.44053L11.6159 9.44053H15.4131Z" fill="url(#paint1_linear_100_492)"/>
<path d="M11.3786 19.6452C10.4388 19.6452 9.52754 19.2655 8.86305 18.601C8.19856 17.9365 7.81885 17.0252 7.81885 16.0855H9.24276C9.24276 16.6455 9.47059 17.1961 9.86928 17.5948C10.268 17.9935 10.8186 18.2213 11.3786 18.2213C12.5557 18.2213 13.5145 17.2626 13.5145 16.0855H14.9384C14.9384 18.0505 13.3436 19.6452 11.3786 19.6452Z" fill="url(#paint2_linear_100_492)"/>
<defs>
<linearGradient id="paint0_linear_100_492" x1="-4.1318" y1="47.0281" x2="28.6023" y2="40.1074" gradientUnits="userSpaceOnUse">
<stop offset="0.0001" stop-color="#A3743C"/>
<stop offset="0.492708" stop-color="#FAC579" stop-opacity="0.9"/>
<stop offset="1" stop-color="#A3743C"/>
</linearGradient>
<linearGradient id="paint1_linear_100_492" x1="5.08871" y1="24.4624" x2="18.666" y2="21.6208" gradientUnits="userSpaceOnUse">
<stop offset="0.0001" stop-color="#A3743C"/>
<stop offset="0.492708" stop-color="#FAC579" stop-opacity="0.9"/>
<stop offset="1" stop-color="#A3743C"/>
</linearGradient>
<linearGradient id="paint2_linear_100_492" x1="5.25934" y1="24.9069" x2="16.5647" y2="20.1745" gradientUnits="userSpaceOnUse">
<stop offset="0.0001" stop-color="#A3743C"/>
<stop offset="0.492708" stop-color="#FAC579" stop-opacity="0.9"/>
<stop offset="1" stop-color="#A3743C"/>
</linearGradient>
</defs>
</svg>
