<svg width="29" height="29" viewBox="0 0 29 29" fill="none" xmlns="http://www.w3.org/2000/svg">
<g clip-path="url(#clip0_89_21055)">
<path d="M10.3333 4.5H18.4999L18.0908 5.43525C17.7192 6.28455 16.8801 6.83333 15.9531 6.83333H12.8801C11.9531 6.83333 11.114 6.28455 10.7424 5.43525L10.3333 4.5Z" fill="white"/>
<path fill-rule="evenodd" clip-rule="evenodd" d="M12.0833 23.1667C11.7612 23.1667 11.5 23.4279 11.5 23.75C11.5 24.0721 11.7612 24.3333 12.0833 24.3333H16.75C17.0721 24.3333 17.3333 24.0721 17.3333 23.75C17.3333 23.4279 17.0721 23.1667 16.75 23.1667H12.0833ZM9.84514 4.18072C9.9529 4.01596 10.1365 3.91666 10.3333 3.91666H18.5C18.6968 3.91666 18.8805 4.01596 18.9882 4.18072C19.0959 4.34546 19.1133 4.55345 19.0345 4.73381L18.6253 5.66906C18.1609 6.73069 17.1119 7.41666 15.9532 7.41666H12.8802C11.7214 7.41666 10.6725 6.73069 10.2081 5.66906L9.79891 4.73381C9.72001 4.55345 9.73739 4.34546 9.84514 4.18072ZM11.2253 5.08333L11.2769 5.20143C11.5556 5.83841 12.1849 6.25 12.8802 6.25H15.9532C16.6484 6.25 17.2777 5.83841 17.5564 5.20143L17.6081 5.08333H11.2253ZM15.1708 11.0875C15.3987 10.8597 15.768 10.8597 15.9959 11.0875L18.3292 13.4208C18.5569 13.6486 18.5569 14.018 18.3292 14.2459L15.9959 16.5792C15.768 16.8069 15.3987 16.8069 15.1708 16.5792C14.9431 16.3513 14.9431 15.982 15.1708 15.7541L17.0917 13.8333L15.1708 11.9125C14.9431 11.6847 14.9431 11.3153 15.1708 11.0875Z" fill="#E3B36F"/>
<path fill-rule="evenodd" clip-rule="evenodd" d="M10.9167 16.1667C10.9167 14.5558 12.2226 13.25 13.8334 13.25H17.3334C17.6555 13.25 17.9167 13.5112 17.9167 13.8333C17.9167 14.1554 17.6555 14.4167 17.3334 14.4167H13.8334C12.8669 14.4167 12.0834 15.2002 12.0834 16.1667V19.6667C12.0834 19.9888 11.8222 20.25 11.5001 20.25C11.1779 20.25 10.9167 19.9888 10.9167 19.6667V16.1667Z" fill="#E3B36F"/>
<path fill-rule="evenodd" clip-rule="evenodd" d="M7.41675 6.83333C7.41675 5.2225 8.72259 3.91666 10.3334 3.91666H18.5001C20.1109 3.91666 21.4167 5.2225 21.4167 6.83333V24.3333C21.4167 25.9441 20.1109 27.25 18.5001 27.25H10.3334C8.72259 27.25 7.41675 25.9441 7.41675 24.3333V6.83333ZM10.3334 5.08333C9.36691 5.08333 8.58341 5.86683 8.58341 6.83333V24.3333C8.58341 25.2998 9.36691 26.0833 10.3334 26.0833H18.5001C19.4665 26.0833 20.2501 25.2998 20.2501 24.3333V6.83333C20.2501 5.86683 19.4665 5.08333 18.5001 5.08333H10.3334Z" fill="black"/>
</g>
<defs>
<clipPath id="clip0_89_21055">
<rect width="28" height="28" fill="white" transform="translate(0.5 0.964966)"/>
</clipPath>
</defs>
</svg>
