<svg width="29" height="29" viewBox="0 0 29 29" fill="none" xmlns="http://www.w3.org/2000/svg">
<g clip-path="url(#clip0_89_21042)">
<g clip-path="url(#clip1_89_21042)">
<path d="M27.323 18.9376C26.7738 18.472 26.0514 18.2721 25.3389 18.3907L18.4237 19.5437C18.3879 18.9465 18.1483 18.3891 17.7225 17.9634C17.2626 17.5043 16.6597 17.2557 16.0008 17.2549C11.6027 17.2679 8.70131 17.2687 8.06025 17.2565C7.61256 16.7576 6.97069 16.4375 6.25 16.4375H4.625C4.1765 16.4375 3.8125 16.8015 3.8125 17.25V25.375C3.8125 25.8235 4.1765 26.1875 4.625 26.1875H6.25C6.96744 26.1875 7.60687 25.8698 8.05375 25.375H16C16.0569 25.375 16.1146 25.3693 16.1698 25.3571L26.2529 23.1967C27.3734 22.9562 28.1867 21.9503 28.1867 20.8039C28.1875 20.0832 27.8723 19.4031 27.323 18.9376ZM6.25 24.5625H5.4375V18.0625H6.25C6.69769 18.0625 7.0625 18.4273 7.0625 18.875V23.75C7.0625 24.1977 6.69769 24.5625 6.25 24.5625ZM25.9133 21.6074L15.9139 23.75H8.6875V18.8864C9.69825 18.8945 11.7449 18.8921 16.0049 18.8799H16.0073C16.2218 18.8799 16.4225 18.9628 16.5744 19.1139C16.728 19.2674 16.8125 19.4714 16.8125 19.6899C16.8125 20.1368 16.4493 20.5 16.0024 20.5H11.9375C11.489 20.5 11.125 20.864 11.125 21.3125C11.125 21.761 11.489 22.125 11.9375 22.125H16.0024C16.7296 22.125 17.3764 21.7976 17.8232 21.2906L25.6062 19.993C25.8483 19.954 26.0847 20.0182 26.2724 20.1766C26.4593 20.3359 26.5625 20.5585 26.5625 20.8039C26.5625 21.189 26.2895 21.527 25.9133 21.6074ZM14.375 16.4375H17.625C21.6566 16.4375 24.9375 13.1566 24.9375 9.125C24.9375 5.09338 21.6566 1.8125 17.625 1.8125H14.375C10.3434 1.8125 7.0625 5.09338 7.0625 9.125C7.0625 13.1566 10.3434 16.4375 14.375 16.4375ZM23.3125 9.125C23.3125 11.7039 21.5859 13.883 19.2297 14.5785C20.7336 13.2379 21.6875 11.2927 21.6875 9.125C21.6875 6.95725 20.7336 5.01213 19.2297 3.6715C21.5859 4.367 23.3125 6.54612 23.3125 9.125ZM14.375 3.4375C17.5112 3.4375 20.0625 5.98875 20.0625 9.125C20.0625 12.2612 17.5112 14.8125 14.375 14.8125C11.2388 14.8125 8.6875 12.2612 8.6875 9.125C8.6875 5.98875 11.2388 3.4375 14.375 3.4375Z" fill="black"/>
<path d="M11.8822 10.2966L11.5645 12.2434C11.5141 12.5505 11.6441 12.8593 11.8984 13.0388C12.1536 13.2176 12.4883 13.2363 12.7597 13.0859L14.3749 12.193L15.9902 13.0859C16.1137 13.1534 16.2486 13.1875 16.3834 13.1875C16.5476 13.1875 16.7117 13.1371 16.8514 13.0388C17.1057 12.8601 17.2357 12.5505 17.1854 12.2434L16.8677 10.2966L18.2059 8.92512C18.4187 8.70737 18.4919 8.38887 18.3944 8.09962C18.2969 7.81037 18.0474 7.59994 17.7468 7.55444L15.9301 7.27656L15.1102 5.52969C14.977 5.2445 14.6902 5.0625 14.3749 5.0625C14.0597 5.0625 13.7729 5.2445 13.6396 5.52969L12.8198 7.27656L11.0022 7.55444C10.7016 7.60075 10.4514 7.81119 10.3547 8.09962C10.258 8.38806 10.3303 8.70737 10.5432 8.92512L11.8822 10.2966ZM13.4934 8.81787C13.7615 8.77644 13.9914 8.605 14.106 8.35962L14.3749 7.78763L14.6439 8.36044C14.7592 8.60581 14.9884 8.77725 15.2565 8.81869L15.939 8.92269L15.4182 9.4565C15.2378 9.64094 15.1566 9.90013 15.198 10.1544L15.3126 10.8548L14.7682 10.5542C14.6463 10.4867 14.5106 10.4526 14.3749 10.4526C14.2392 10.4526 14.1044 10.4867 13.9817 10.5542L13.4373 10.8548L13.5519 10.1544C13.5933 9.90013 13.5121 9.64094 13.3317 9.4565L12.8109 8.92188L13.4934 8.81787Z" fill="#E3B36F"/>
</g>
</g>
<defs>
<clipPath id="clip0_89_21042">
<rect width="28" height="28" fill="white" transform="translate(0.5 0.964966)"/>
</clipPath>
<clipPath id="clip1_89_21042">
<rect width="26" height="26" fill="white" transform="translate(3 1)"/>
</clipPath>
</defs>
</svg>
