<svg width="24" height="24" viewBox="0 0 24 24" fill="none" xmlns="http://www.w3.org/2000/svg">
<path d="M10.8841 20.5945C5.777 20.5945 1.62866 16.4462 1.62866 11.3391C1.62866 6.23198 5.777 2.08365 10.8841 2.08365C15.9912 2.08365 20.1395 6.23198 20.1395 11.3391C20.1395 16.4462 15.9912 20.5945 10.8841 20.5945ZM10.8841 3.50756C6.56489 3.50756 3.05258 7.01988 3.05258 11.3391C3.05258 15.6583 6.56489 19.1706 10.8841 19.1706C15.2033 19.1706 18.7156 15.6583 18.7156 11.3391C18.7156 7.01988 15.2033 3.50756 10.8841 3.50756Z" fill="url(#paint0_linear_100_1005)"/>
<path d="M19.5794 22.531C19.5034 22.531 19.4275 22.5215 19.361 22.5121C18.9149 22.4551 18.108 22.1513 17.6523 20.7939C17.415 20.0819 17.5005 19.37 17.8897 18.8289C18.2789 18.2878 18.9339 17.984 19.6838 17.984C20.6521 17.984 21.4115 18.3542 21.7532 19.0092C22.0949 19.6642 22 20.4996 21.4589 21.3065C20.7849 22.3222 20.054 22.531 19.5794 22.531ZM19.0098 20.3477C19.1712 20.8413 19.399 21.0881 19.5509 21.1071C19.7028 21.1261 19.9876 20.9457 20.2818 20.5186C20.5571 20.1104 20.5761 19.8161 20.5097 19.6832C20.4432 19.5503 20.1774 19.4079 19.6838 19.4079C19.3895 19.4079 19.1712 19.5028 19.0478 19.6642C18.9339 19.8256 18.9149 20.0724 19.0098 20.3477Z" fill="url(#paint1_linear_100_1005)"/>
<path opacity="0.2" d="M16.6387 8.0166C16.1291 7.1339 15.4232 6.38027 14.5757 5.81401C13.7283 5.24774 12.7619 4.88402 11.7514 4.75099C10.7408 4.61795 9.71324 4.71916 8.74808 5.04678C7.78292 5.37441 6.90607 5.91967 6.18535 6.64039C5.46463 7.36111 4.91937 8.23796 4.59174 9.20312C4.26412 10.1683 4.16291 11.1959 4.29595 12.2064C4.42898 13.2169 4.7927 14.1833 5.35897 15.0308C5.92523 15.8783 6.67886 16.5841 7.56156 17.0937L10.884 11.3391L16.6387 8.0166Z" fill="url(#paint2_linear_100_1005)"/>
<defs>
<linearGradient id="paint0_linear_100_1005" x1="-5.02606" y1="47.955" x2="28.0685" y2="41.0284" gradientUnits="userSpaceOnUse">
<stop offset="0.0001" stop-color="#A3743C"/>
<stop offset="0.492708" stop-color="#FAC579" stop-opacity="0.9"/>
<stop offset="1" stop-color="#A3743C"/>
</linearGradient>
<linearGradient id="paint1_linear_100_1005" x1="15.9269" y1="29.2519" x2="23.8685" y2="27.6315" gradientUnits="userSpaceOnUse">
<stop offset="0.0001" stop-color="#A3743C"/>
<stop offset="0.492708" stop-color="#FAC579" stop-opacity="0.9"/>
<stop offset="1" stop-color="#A3743C"/>
</linearGradient>
<linearGradient id="paint2_linear_100_1005" x1="14.1359" y1="39.8168" x2="32.2264" y2="23.63" gradientUnits="userSpaceOnUse">
<stop offset="0.0001" stop-color="#A3743C"/>
<stop offset="0.492708" stop-color="#FAC579" stop-opacity="0.9"/>
<stop offset="1" stop-color="#A3743C"/>
</linearGradient>
</defs>
</svg>
