<svg width="12" height="12" viewBox="0 0 12 12" fill="none" xmlns="http://www.w3.org/2000/svg">
<path d="M5.98938 0.424302C5.87511 0.377153 5.74945 0.364872 5.62822 0.389007C5.50699 0.413141 5.39562 0.472612 5.30813 0.559927L2.625 3.50118H0.75C0.40625 3.50118 0.125 3.78305 0.125 4.12618V7.87618C0.125 8.21993 0.40625 8.50118 0.75 8.50118H2.625L5.30813 11.4437C5.39557 11.5311 5.50698 11.5906 5.62826 11.6147C5.74954 11.6388 5.87524 11.6264 5.98945 11.579C6.10366 11.5316 6.20126 11.4514 6.26989 11.3486C6.33852 11.2457 6.3751 11.1248 6.375 11.0012V1.00118C6.37507 0.877642 6.33846 0.756868 6.26981 0.654167C6.20116 0.551465 6.10355 0.471462 5.98938 0.424302Z" fill="#1B232A"/>
<path d="M7.625 1.62622V2.87622C9.34812 2.87622 10.75 4.27872 10.75 6.00122C10.75 7.72435 9.34812 9.12622 7.625 9.12622V10.3762C10.0375 10.3762 12 8.41435 12 6.00122C12 3.58935 10.0375 1.62622 7.625 1.62622Z" fill="#E3B36F"/>
<path d="M9.5 6.00122C9.5 4.9681 8.65875 4.12622 7.625 4.12622V5.37622C7.96938 5.37622 8.25 5.65685 8.25 6.00122C8.25 6.3456 7.96938 6.62622 7.625 6.62622V7.87622C8.65875 7.87622 9.5 7.0356 9.5 6.00122Z" fill="#1B232A"/>
</svg>
