<svg width="24" height="24" viewBox="0 0 24 24" fill="none" xmlns="http://www.w3.org/2000/svg">
<path d="M17.2122 22.5978C16.7001 22.5978 16.043 22.4336 15.2218 21.9505L12.3328 20.2403C12.0332 20.0663 11.4535 20.0663 11.1637 20.2403L8.26501 21.9505C6.5548 22.965 5.54994 22.5592 5.09582 22.2307C4.65136 21.9022 3.95568 21.0615 4.4098 19.1291L5.09582 16.1628C5.17311 15.8536 5.01852 15.3222 4.78663 15.0903L2.39041 12.6941C1.1923 11.496 1.28892 10.4718 1.45318 9.96939C1.61744 9.46695 2.13919 8.57803 3.80109 8.29783L6.88332 7.78574C7.17318 7.73743 7.58865 7.42824 7.71426 7.16736L9.42447 3.75662C10.1974 2.20101 11.212 1.96912 11.7434 1.96912C12.2748 1.96912 13.2893 2.20101 14.0623 3.75662L15.7628 7.1577C15.8981 7.41858 16.3136 7.72776 16.6035 7.77607L19.6857 8.28817C21.3572 8.56837 21.879 9.45729 22.0336 9.95972C22.1882 10.4622 22.2848 11.4863 21.0964 12.6845L18.7001 15.0903C18.4683 15.3222 18.3233 15.844 18.391 16.1628L19.077 19.1291C19.5214 21.0615 18.8354 21.9022 18.391 22.2307C18.1494 22.4046 17.7629 22.5978 17.2122 22.5978ZM11.7434 18.6557C12.2168 18.6557 12.6903 18.7716 13.0671 18.9938L15.9561 20.704C16.7967 21.2065 17.3281 21.2065 17.531 21.0615C17.7339 20.9166 17.8789 20.4045 17.6663 19.4576L16.9803 16.4913C16.7967 15.6894 17.0962 14.6555 17.676 14.0661L20.0722 11.6699C20.5456 11.1965 20.7582 10.7327 20.6616 10.4138C20.5553 10.095 20.1108 9.83412 19.4538 9.72783L16.3716 9.21574C15.6276 9.09013 14.816 8.49108 14.4778 7.81472L12.7772 4.41364C12.468 3.79526 12.0816 3.4281 11.7434 3.4281C11.4052 3.4281 11.0187 3.79526 10.7192 4.41364L9.00899 7.81472C8.67082 8.49108 7.85919 9.09013 7.11521 9.21574L4.04264 9.72783C3.38561 9.83412 2.94115 10.095 2.83487 10.4138C2.72859 10.7327 2.95082 11.2061 3.42426 11.6699L5.82048 14.0661C6.40021 14.6459 6.69974 15.6894 6.51615 16.4913L5.83014 19.4576C5.60791 20.4142 5.76251 20.9166 5.96541 21.0615C6.16832 21.2065 6.69007 21.1968 7.54034 20.704L10.4293 18.9938C10.7965 18.7716 11.2699 18.6557 11.7434 18.6557Z" fill="url(#paint0_linear_965_1605)"/>
<path opacity="0.3" d="M7.52154 15.5098C7.5955 15.1942 7.46103 14.7432 7.2257 14.5178L5.59185 12.9524C5.08085 12.4628 4.87914 11.941 5.02706 11.49C5.18171 11.0391 5.65909 10.7299 6.37179 10.6139L8.46958 10.2789C8.77214 10.2274 9.14194 9.96971 9.28314 9.70559L10.4396 7.4831C10.7758 6.84534 11.233 6.49103 11.7306 6.49103C12.2281 6.49103 12.6853 6.84534 13.0215 7.4831L14.178 9.70559C14.2654 9.87308 14.4469 10.0341 14.6419 10.1436L7.40051 17.0817C7.30638 17.1719 7.14502 17.0881 7.17191 16.9593L7.52154 15.5098Z" fill="url(#paint1_linear_965_1605)"/>
<defs>
<linearGradient id="paint0_linear_965_1605" x1="23.9175" y1="24.1127" x2="-1.12671" y2="21.3926" gradientUnits="userSpaceOnUse">
<stop stop-color="#5D3889"/>
<stop offset="1" stop-color="#596CB5"/>
</linearGradient>
<linearGradient id="paint1_linear_965_1605" x1="15.4763" y1="17.8999" x2="3.79932" y2="16.7546" gradientUnits="userSpaceOnUse">
<stop stop-color="#5D3889"/>
<stop offset="1" stop-color="#596CB5"/>
</linearGradient>
</defs>
</svg>
