<svg width="17" height="17" viewBox="0 0 17 17" fill="none" xmlns="http://www.w3.org/2000/svg">
<rect x="0.5" y="0.5" width="16" height="16" rx="8" fill="#171717"/>
<rect x="3.40039" y="2.68408" width="9.66316" height="3.22105" fill="#26A69A"/>
<path fill-rule="evenodd" clip-rule="evenodd" d="M1.78955 9.66299C1.78955 7.9678 6.00768 7.51562 8.50008 7.51562C10.9925 7.51562 15.2106 7.9678 15.2106 9.66299C15.2106 11.3582 10.9925 11.8104 8.50008 11.8104C6.00768 11.8104 1.78955 11.3582 1.78955 9.66299ZM2.90797 9.3563C2.90797 10.0343 5.41156 10.5834 8.50008 10.5834C11.5886 10.5834 14.0922 10.0343 14.0922 9.3563C14.0922 8.67834 11.5886 8.12923 8.50008 8.12923C5.41156 8.12923 2.90797 8.67834 2.90797 9.3563Z" fill="#26A69A"/>
<path d="M8.23162 9.12645C8.81946 9.12645 9.35523 9.10659 9.84215 9.07384V3.22119H6.62109V9.07384C7.10801 9.10659 7.64378 9.12645 8.23162 9.12645Z" fill="#26A69A"/>
<path d="M9.1566 9.87052C9.09701 9.87244 9.03688 9.87387 8.97622 9.87531C8.73196 9.88153 8.48501 9.88584 8.23162 9.88584C7.97823 9.88584 7.73128 9.88153 7.48702 9.87579C7.42636 9.87435 7.36623 9.87292 7.30664 9.871C7.07311 9.86382 6.84335 9.85472 6.62109 9.84228V14.6734H9.84215V9.8418C9.61989 9.85424 9.39013 9.86334 9.1566 9.87052Z" fill="#26A69A"/>
<rect x="0.5" y="0.5" width="16" height="16" rx="8" stroke="black"/>
</svg>
