<svg width="24" height="24" viewBox="0 0 24 24" fill="none" xmlns="http://www.w3.org/2000/svg">
<path fill-rule="evenodd" clip-rule="evenodd" d="M16.041 2.33778C16.1151 2.21752 16.2229 2.12216 16.3507 2.06374C16.4785 2.00533 16.6206 1.98649 16.759 2.0096L20.4072 2.6244C20.5927 2.65565 20.7583 2.76 20.8677 2.91451C20.9771 3.06903 21.0212 3.26107 20.9904 3.44844L20.3831 7.13439C20.3599 7.27411 20.2963 7.40376 20.2001 7.50695C20.104 7.61014 19.9798 7.68225 19.8431 7.71415C19.7064 7.74605 19.5635 7.73632 19.4323 7.68618C19.3011 7.63605 19.1875 7.54776 19.106 7.43247L18.1212 6.04236L13.0497 9.31558C12.8335 9.45534 12.5745 9.51143 12.3205 9.47351C12.0665 9.43558 11.8346 9.3062 11.6676 9.10921L8.83959 5.77007L3.551 8.51447C3.29998 8.64484 3.00796 8.66916 2.73919 8.58208C2.47041 8.495 2.2469 8.30366 2.11781 8.05014C1.98873 7.79663 1.96465 7.50171 2.05087 7.23026C2.13709 6.95881 2.32655 6.73307 2.57757 6.60271L8.61539 3.4685C8.82855 3.3579 9.07244 3.3232 9.30756 3.37002C9.54268 3.41683 9.75528 3.54243 9.91093 3.72646L12.6836 7.00111L16.8839 4.28967L16.0651 3.13315C15.9837 3.01783 15.938 2.88072 15.9337 2.73916C15.9294 2.5976 15.9667 2.45792 16.041 2.33778ZM6.75225 9.37433L2.63433 11.7533C2.47165 11.8471 2.33638 11.9827 2.2422 12.1463C2.14802 12.3098 2.09826 12.4956 2.09795 12.6848V20.9252C2.09795 21.5185 2.57473 22 3.16219 22H6.75225V9.37433ZM8.52599 22H13.7309V12.2377L11.3909 13.4186L9.05244 9.28548C8.93434 9.07529 8.7493 8.91164 8.52741 8.82115L8.52599 22ZM19.4806 22H15.5046V11.342L19.0053 9.57353C19.1675 9.49173 19.3478 9.45315 19.5289 9.46146C19.7101 9.46978 19.8862 9.52471 20.0404 9.62104C20.1946 9.71738 20.3219 9.85192 20.4102 10.0119C20.4985 10.1719 20.5449 10.352 20.5449 10.5351V20.9252C20.5449 21.2102 20.4327 21.4836 20.2332 21.6852C20.0336 21.8868 19.7629 22 19.4806 22Z" fill="black"/>
</svg>
