<svg width="94" height="35" viewBox="0 0 94 35" fill="none" xmlns="http://www.w3.org/2000/svg">
<g clip-path="url(#clip0_5_10)">
<path d="M96.8547 4.27013L98.9285 2.7618L98.9285 35.0009L-2.92719 35.0009L-2.92719 22.2402L-0.974854 22.0753C-0.283589 21.5726 1.32148 20.6266 2.21164 20.8652C3.10181 21.1037 2.96477 19.5381 2.78498 18.7255L5.53319 16.4805L8.16673 14.6635L9.96744 12.394L12.5369 11.7065L15.1131 10.1034L16.3472 9.05812L19.0177 9.77368L21.4657 10.4296L23.0235 10.847L25.6668 15.2246L28.4384 17.3433L33.1895 15.635L34.4508 10.9276L38.2408 11.0258L42.267 9.35263L45.5817 5.88348L50.0461 5.24505L52.4805 7.732L56.9683 11.4572L58.5125 13.7056L58.8361 15.1683L60.2725 16.9292L61.1558 18.0832L63.6815 15.7786L65.5833 14.9122L66.5376 14.0213L69.4442 7.96542L75.5305 6.61491L75.8474 8.99315L81.0067 6.44501L83.4615 6.18543L85.3127 4.61746L87.0998 4.17899L87.6528 4.78582L89.369 6.39235L90.4312 5.98895L91.2135 5.7399L91.9958 5.49085L93.0579 5.08745L93.503 5.20671L94.1774 4.47009L95.2901 4.76824L96.8547 4.27013Z" fill="url(#paint0_linear_5_10)"/>
<path d="M98.929 2.76089L96.8552 4.26922L95.2906 4.76733L94.1779 4.46918L93.5035 5.2058L93.0584 5.08654L91.9962 5.48994L91.2139 5.73899L90.4316 5.98804L89.3695 6.39144L87.6533 4.78491L87.1003 4.17808L85.3132 4.61655L83.4619 6.18452L81.0072 6.4441L75.8478 8.99223L75.531 6.614L69.4447 7.96451L66.5381 14.0203L65.5838 14.9113L63.682 15.7777L61.1563 18.0823L60.2729 16.9283L58.8366 15.1674L58.513 13.7047L56.9688 11.4563L52.481 7.73109L50.0466 5.24414L45.5822 5.88257L42.2674 9.35171L38.2413 11.0249L34.4513 10.9267L33.19 15.6341L28.4389 17.3424L25.6673 15.2237L23.024 10.8461L21.4662 10.4287L19.0182 9.77277L16.3477 9.05721L15.1135 10.1025L12.5373 11.7056L9.96791 12.3931L8.1672 14.6626L5.53366 16.4796L2.78545 18.7246C2.96524 19.5372 3.10228 21.1028 2.21211 20.8643C1.32195 20.6257 -0.283121 21.5717 -0.974385 22.0744L-2.92672 22.2393" stroke="#00DB58" stroke-width="1.5"/>
</g>
<defs>
<linearGradient id="paint0_linear_5_10" x1="42.9941" y1="49.5" x2="42.9941" y2="-6.5" gradientUnits="userSpaceOnUse">
<stop offset="0.415251" stop-color="#04D671" stop-opacity="0"/>
<stop offset="1" stop-color="#04D671"/>
</linearGradient>
<clipPath id="clip0_5_10">
<rect width="94" height="35" fill="white"/>
</clipPath>
</defs>
</svg>
