<svg width="94" height="35" viewBox="0 0 94 35" fill="none" xmlns="http://www.w3.org/2000/svg">
<g clip-path="url(#clip0_5_9)">
<path d="M94.8555 24.2683L96.9293 22.76L96.9293 39.999L-2.9264 39.999L-2.9264 22.2384L-0.97406 22.0735C-0.282796 21.5707 1.32227 20.6248 2.21244 20.8633C3.1026 21.1018 2.96556 19.5362 2.78577 18.7236L5.53398 16.4787L8.16752 14.6617L9.96823 12.3922L12.5376 11.7046L15.1139 10.1016L16.348 9.05628L19.0185 9.77184L21.4665 10.4278L23.0243 10.8452L25.6676 15.2228L28.4392 17.3414L33.1903 15.6332L34.4516 10.9258L38.2416 11.024L42.2677 9.35078L45.5825 10.8816L50.0469 10.2432L52.4813 12.7302L56.9691 16.4553L58.5133 18.7038L58.8369 20.1665L60.2732 21.9273L61.1566 23.0814L63.6823 20.7768L65.5841 19.9104L66.5384 19.0194L69.445 20.9636L75.5313 19.6131L75.8482 21.9913L79.0075 24.4432L81.4623 24.1836L83.3135 22.6156L85.1006 24.1771L85.6536 24.784L87.3698 26.3905L88.432 25.9871L89.2143 25.7381L89.9965 25.489L91.0587 25.0856L91.5038 25.2049L92.1782 24.4682L93.2909 24.7664L94.8555 24.2683Z" fill="url(#paint0_linear_5_9)"/>
<path d="M96.9278 22.761L94.854 24.2693L93.2894 24.7674L92.1767 24.4693L91.5023 25.2059L91.0572 25.0866L89.9951 25.49L89.2128 25.7391L88.4305 25.9881L87.3683 26.3915L85.6521 24.785L85.0991 24.1782L83.312 22.6167L81.4608 24.1846L79.006 24.4442L75.8467 21.9923L75.5298 19.6141L69.4435 20.9646L66.5369 19.0204L65.5826 19.9114L63.6808 20.7778L61.1551 23.0824L60.2718 21.9284L58.8354 20.1675L58.5118 18.7048L56.9676 16.4564L52.4798 12.7312L50.0454 10.2442L45.581 10.8827L42.2662 9.35182L38.2401 11.025L34.4501 10.9268L33.1888 15.6342L28.4377 17.3425L25.6661 15.2238L23.0228 10.8462L21.465 10.4288L19.017 9.77287L16.3465 9.05731L15.1124 10.1026L12.5362 11.7057L9.96673 12.3932L8.16602 14.6627L5.53249 16.4797L2.78428 18.7247C2.96407 19.5373 3.10111 21.1029 2.21094 20.8644C1.32078 20.6258 -0.284291 21.5718 -0.975555 22.0745L-2.92789 22.2394" stroke="#DB0000" stroke-width="1.5"/>
</g>
<defs>
<linearGradient id="paint0_linear_5_9" x1="41.4368" y1="34.5" x2="41.4368" y2="10" gradientUnits="userSpaceOnUse">
<stop offset="0.251032" stop-color="#FF3030" stop-opacity="0"/>
<stop offset="0.725768" stop-color="#FF3030"/>
</linearGradient>
<clipPath id="clip0_5_9">
<rect width="94" height="35" fill="white"/>
</clipPath>
</defs>
</svg>
