<svg width="24" height="24" viewBox="0 0 24 24" fill="none" xmlns="http://www.w3.org/2000/svg">
<path d="M21.5996 11.3996C21.5996 11.636 21.5531 11.8701 21.4626 12.0884C21.3721 12.3068 21.2395 12.5053 21.0724 12.6724C20.9053 12.8395 20.7068 12.9721 20.4884 13.0626C20.2701 13.1531 20.036 13.1996 19.7996 13.1996C19.5632 13.1996 19.3292 13.1531 19.1108 13.0626C18.8924 12.9721 18.694 12.8395 18.5268 12.6724C18.3597 12.5053 18.2271 12.3068 18.1366 12.0884C18.0462 11.8701 17.9996 11.636 17.9996 11.3996L17.9996 4.19961C17.9996 3.72222 18.1893 3.26438 18.5268 2.92682C18.8644 2.58925 19.3222 2.39961 19.7996 2.39961C20.277 2.39961 20.7348 2.58925 21.0724 2.92682C21.41 3.26438 21.5996 3.72222 21.5996 4.19961L21.5996 11.3996ZM16.7996 11.6L16.7996 5.08401C16.7998 4.63801 16.6757 4.20078 16.4413 3.82137C16.2069 3.44195 15.8714 3.13537 15.4724 2.93601L15.4124 2.90601C14.7465 2.57321 14.0124 2.39985 13.268 2.39961L6.76881 2.39961C6.21377 2.39939 5.67582 2.59155 5.24654 2.94338C4.81726 3.2952 4.5232 3.78494 4.41441 4.32921L2.97441 11.5292C2.90482 11.8774 2.91335 12.2366 2.99936 12.5811C3.08538 12.9255 3.24675 13.2466 3.47185 13.5212C3.69694 13.7958 3.98015 14.017 4.30105 14.1689C4.62196 14.3208 4.97257 14.3996 5.32761 14.3996L9.59961 14.3996L9.59961 19.1996C9.59961 19.8361 9.85247 20.4466 10.3026 20.8967C10.7526 21.3468 11.3631 21.5996 11.9996 21.5996C12.3179 21.5996 12.6231 21.4732 12.8481 21.2481C13.0732 21.0231 13.1996 20.7179 13.1996 20.3996L13.1996 19.5992C13.1996 18.5606 13.5365 17.5501 14.1596 16.7192L15.8396 14.48C16.4628 13.6491 16.7996 12.6386 16.7996 11.6Z" fill="black"/>
</svg>
