<svg width="24" height="24" viewBox="0 0 24 24" fill="none" xmlns="http://www.w3.org/2000/svg">
<path d="M8.39961 11.3996C8.39961 11.5587 8.3364 11.7114 8.22387 11.8239C8.11135 11.9364 7.95874 11.9996 7.79961 11.9996C7.64048 11.9996 7.48787 11.9364 7.37535 11.8239C7.26282 11.7114 7.19961 11.5587 7.19961 11.3996C7.19961 11.2405 7.26282 11.0879 7.37535 10.9753C7.48787 10.8628 7.64048 10.7996 7.79961 10.7996C7.95874 10.7996 8.11135 10.8628 8.22387 10.9753C8.3364 11.0879 8.39961 11.2405 8.39961 11.3996ZM7.79961 16.7996C7.95874 16.7996 8.11135 16.7364 8.22387 16.6239C8.3364 16.5114 8.39961 16.3587 8.39961 16.1996C8.39961 16.0405 8.3364 15.8879 8.22387 15.7753C8.11135 15.6628 7.95874 15.5996 7.79961 15.5996C7.64048 15.5996 7.48787 15.6628 7.37535 15.7753C7.26282 15.8879 7.19961 16.0405 7.19961 16.1996C7.19961 16.3587 7.26282 16.5114 7.37535 16.6239C7.48787 16.7364 7.64048 16.7996 7.79961 16.7996ZM3.59961 7.19961C3.59961 6.24483 3.97889 5.32916 4.65403 4.65403C5.32916 3.97889 6.24483 3.59961 7.19961 3.59961H16.7996C17.7544 3.59961 18.6701 3.97889 19.3452 4.65403C20.0203 5.32916 20.3996 6.24483 20.3996 7.19961V11.5196C19.471 11.0447 18.4426 10.7979 17.3996 10.7996H11.3996C11.2405 10.7996 11.0879 10.8628 10.9753 10.9753C10.8628 11.0879 10.7996 11.2405 10.7996 11.3996C10.7996 11.5587 10.8628 11.7114 10.9753 11.8239C11.0879 11.9364 11.2405 11.9996 11.3996 11.9996H13.604C12.7371 12.6082 12.0296 13.4167 11.5414 14.3567C11.0533 15.2966 10.7988 16.3404 10.7996 17.3996C10.7996 18.4796 11.0588 19.4996 11.5196 20.3996H7.19961C6.24483 20.3996 5.32916 20.0203 4.65403 19.3452C3.97889 18.6701 3.59961 17.7544 3.59961 16.7996V7.19961ZM6.59961 5.99961C6.44048 5.99961 6.28787 6.06282 6.17535 6.17535C6.06282 6.28787 5.99961 6.44048 5.99961 6.59961C5.99961 6.75874 6.06282 6.91135 6.17535 7.02387C6.28787 7.1364 6.44048 7.19961 6.59961 7.19961H17.3996C17.5587 7.19961 17.7114 7.1364 17.8239 7.02387C17.9364 6.91135 17.9996 6.75874 17.9996 6.59961C17.9996 6.44048 17.9364 6.28787 17.8239 6.17535C17.7114 6.06282 17.5587 5.99961 17.3996 5.99961H6.59961ZM7.79961 13.1996C8.277 13.1996 8.73484 13.01 9.0724 12.6724C9.40997 12.3348 9.59961 11.877 9.59961 11.3996C9.59961 10.9222 9.40997 10.4644 9.0724 10.1268C8.73484 9.78925 8.277 9.59961 7.79961 9.59961C7.32222 9.59961 6.86438 9.78925 6.52682 10.1268C6.18925 10.4644 5.99961 10.9222 5.99961 11.3996C5.99961 11.877 6.18925 12.3348 6.52682 12.6724C6.86438 13.01 7.32222 13.1996 7.79961 13.1996ZM9.59961 16.1996C9.59961 15.7222 9.40997 15.2644 9.0724 14.9268C8.73484 14.5893 8.277 14.3996 7.79961 14.3996C7.32222 14.3996 6.86438 14.5893 6.52682 14.9268C6.18925 15.2644 5.99961 15.7222 5.99961 16.1996C5.99961 16.677 6.18925 17.1348 6.52682 17.4724C6.86438 17.81 7.32222 17.9996 7.79961 17.9996C8.277 17.9996 8.73484 17.81 9.0724 17.4724C9.40997 17.1348 9.59961 16.677 9.59961 16.1996ZM22.7996 17.3996C22.7996 18.8318 22.2307 20.2053 21.218 21.218C20.2053 22.2307 18.8318 22.7996 17.3996 22.7996C15.9674 22.7996 14.5939 22.2307 13.5812 21.218C12.5685 20.2053 11.9996 18.8318 11.9996 17.3996C11.9996 15.9674 12.5685 14.5939 13.5812 13.5812C14.5939 12.5685 15.9674 11.9996 17.3996 11.9996C18.8318 11.9996 20.2053 12.5685 21.218 13.5812C22.2307 14.5939 22.7996 15.9674 22.7996 17.3996ZM17.9996 14.9996C17.9996 14.8405 17.9364 14.6879 17.8239 14.5753C17.7114 14.4628 17.5587 14.3996 17.3996 14.3996C17.2405 14.3996 17.0879 14.4628 16.9753 14.5753C16.8628 14.6879 16.7996 14.8405 16.7996 14.9996V16.7996H14.9996C14.8405 16.7996 14.6879 16.8628 14.5753 16.9753C14.4628 17.0879 14.3996 17.2405 14.3996 17.3996C14.3996 17.5587 14.4628 17.7114 14.5753 17.8239C14.6879 17.9364 14.8405 17.9996 14.9996 17.9996H16.7996V19.7996C16.7996 19.9587 16.8628 20.1114 16.9753 20.2239C17.0879 20.3364 17.2405 20.3996 17.3996 20.3996C17.5587 20.3996 17.7114 20.3364 17.8239 20.2239C17.9364 20.1114 17.9996 19.9587 17.9996 19.7996V17.9996H19.7996C19.9587 17.9996 20.1114 17.9364 20.2239 17.8239C20.3364 17.7114 20.3996 17.5587 20.3996 17.3996C20.3996 17.2405 20.3364 17.0879 20.2239 16.9753C20.1114 16.8628 19.9587 16.7996 19.7996 16.7996H17.9996V14.9996Z" fill="black"/>
</svg>
