<svg width="24" height="24" viewBox="0 0 24 24" fill="none" xmlns="http://www.w3.org/2000/svg">
<path d="M17.6723 11.2C17.4423 10.9 17.1623 10.64 16.9023 10.38C16.2323 9.78 15.4723 9.35 14.8323 8.72C13.3423 7.26 13.0123 4.85 13.9623 3C13.0123 3.23 12.1823 3.75 11.4723 4.32C8.88226 6.4 7.86226 10.07 9.08226 13.22C9.12226 13.32 9.16226 13.42 9.16226 13.55C9.16226 13.77 9.01226 13.97 8.81226 14.05C8.58226 14.15 8.34226 14.09 8.15226 13.93C8.09516 13.8828 8.04764 13.8251 8.01226 13.76C6.88226 12.33 6.70226 10.28 7.46226 8.64C5.79226 10 4.88226 12.3 5.01226 14.47C5.07226 14.97 5.13226 15.47 5.30226 15.97C5.44226 16.57 5.71226 17.17 6.01226 17.7C7.09226 19.43 8.96226 20.67 10.9723 20.92C13.1123 21.19 15.4023 20.8 17.0423 19.32C18.8723 17.66 19.5123 15 18.5723 12.72L18.4423 12.46C18.2323 12 17.6723 11.2 17.6723 11.2ZM14.5123 17.5C14.2323 17.74 13.7723 18 13.4123 18.1C12.2923 18.5 11.1723 17.94 10.5123 17.28C11.7023 17 12.4123 16.12 12.6223 15.23C12.7923 14.43 12.4723 13.77 12.3423 13C12.2223 12.26 12.2423 11.63 12.5123 10.94C12.7023 11.32 12.9023 11.7 13.1423 12C13.9123 13 15.1223 13.44 15.3823 14.8C15.4223 14.94 15.4423 15.08 15.4423 15.23C15.4723 16.05 15.1123 16.95 14.5123 17.5Z" fill="black"/>
</svg>
